<svg version="1.1" xmlns="http://www.w3.org/2000/svg" xmlns:xlink="http://www.w3.org/1999/xlink" width="435.6146" height="106.96224" viewBox="0,0,435.6146,106.96224"><g transform="translate(-22.1927,-121.22734)"><g data-paper-data="{&quot;isPaintingLayer&quot;:true}" fill-rule="nonzero" stroke-linecap="butt" stroke-linejoin="miter" stroke-miterlimit="10" stroke-dasharray="" stroke-dashoffset="0" style="mix-blend-mode: normal"><path d="M25.89869,223.6306c0,0 -1.70599,-0.35595 -1.70599,-5.11796c0,-18.63581 0,-65.55948 0,-76.76939c0,-4.69146 1.70599,-7.67694 1.70599,-7.67694c0,0 1.0804,-1.70599 5.11796,-1.70599c29.36919,0 365.64711,0 417.96671,0c4.42976,0 5.11796,3.41197 5.11796,3.41197c0,0 1.70599,0.20152 1.70599,5.97095c0,20.39481 0,67.73044 0,77.62239c0,3.55398 -1.70599,5.11796 -1.70599,5.11796c0,0 -1.23458,1.70599 -5.11796,1.70599c-49.57466,0 -390.95286,0 -418.8197,0c-3.5591,0 -4.26497,-2.55898 -4.26497,-2.55898z" fill="#ffffff" stroke="#000000" stroke-width="4"/><text transform="translate(41.59376,207.33844) scale(1.69177,1.69177)" font-size="40" xml:space="preserve" fill="#000000" fill-rule="nonzero" stroke="none" stroke-width="1" stroke-linecap="butt" stroke-linejoin="miter" stroke-miterlimit="10" stroke-dasharray="" stroke-dashoffset="0" font-family="Pixel" font-weight="normal" text-anchor="start" style="mix-blend-mode: normal"><tspan x="0" dy="0">GAME OVER</tspan></text></g></g></svg>