<svg version="1.1" xmlns="http://www.w3.org/2000/svg" xmlns:xlink="http://www.w3.org/1999/xlink" width="68.47896" height="68.47896" viewBox="0,0,68.47896,68.47896"><g transform="translate(-205.57031,-145.72844)"><g data-paper-data="{&quot;isPaintingLayer&quot;:true}" stroke="none" stroke-linecap="butt" stroke-linejoin="miter" stroke-miterlimit="10" stroke-dasharray="" stroke-dashoffset="0" style="mix-blend-mode: normal"><path d="M205.57031,214.2074v-68.47896h68.47896v68.47896z" fill="#99b2ff" fill-rule="nonzero" stroke-width="0"/><path d="M239.31547,147.11023c0.0272,-0.04419 2.65331,-0.06974 2.74976,-0.02671c0.01764,0.00791 0.29298,0.0244 0.61185,0.03677c0.72544,0.02819 1.48205,0.1042 1.6423,0.16504c0.01764,0.00676 0.12629,0.01121 0.24154,0.01006c0.11508,-0.00115 0.20922,0.0183 0.20922,0.04336c0,0.02506 0.09315,0.05276 0.20675,0.06133c0.11376,0.00874 0.22934,0.05111 0.25671,0.09431c0.03875,0.061 0.05012,0.06051 0.05078,-0.00214c0.00066,-0.04435 0.04452,-0.08046 0.09761,-0.08046c0.05309,0 0.09662,0.02819 0.09662,0.06282c0,0.03528 0.08425,0.04583 0.19323,0.02407c0.11821,-0.02358 0.19323,-0.01187 0.19323,0.03017c0,0.03776 0.06397,0.05639 0.14212,0.04138c0.07831,-0.01517 0.25935,0.0061 0.40262,0.04715c0.14311,0.04105 0.29644,0.06826 0.34079,0.06051c0.04435,-0.00775 0.08046,0.01335 0.08046,0.04699c0,0.03363 0.05935,0.04567 0.13173,0.02671c0.0831,-0.0216 0.16817,0.01039 0.23033,0.08656c0.05408,0.06661 0.07996,0.08474 0.05754,0.04056c-0.02391,-0.04748 0.00049,-0.08046 0.05968,-0.08046c0.05523,0 0.10041,0.02556 0.10041,0.05672c0,0.03133 0.07963,0.05721 0.17707,0.05771c0.23544,0.00082 0.54227,0.07205 0.63179,0.14641c0.0399,0.03297 0.08953,0.04287 0.11047,0.02193c0.02094,-0.02094 0.14872,-0.00016 0.28391,0.04616c0.1352,0.04616 0.26034,0.08771 0.27798,0.09233c0.01781,0.00445 0.11343,0.04171 0.21269,0.08293c0.09925,0.04105 0.27188,0.09085 0.38383,0.11047c0.11178,0.01978 0.24072,0.06694 0.28639,0.10486c0.04583,0.03792 0.08326,0.05325 0.08326,0.0338c0,-0.0427 0.6651,0.18697 0.91439,0.3159c0.09843,0.05095 0.18664,0.08738 0.19587,0.08112c0.04649,-0.03182 0.49973,0.08623 0.49973,0.13009c0,0.02803 0.15943,0.10519 0.35431,0.17147c0.19472,0.06628 0.35415,0.14245 0.35415,0.16949c0,0.02687 0.03776,0.03446 0.08392,0.01682c0.04616,-0.01764 0.19092,0.01253 0.32167,0.0671c0.13091,0.05474 0.2572,0.09645 0.28061,0.09282c0.02358,-0.00346 0.06859,0.03957 0.10024,0.09596c0.03149,0.05622 0.092,0.10189 0.13454,0.1014c0.04831,-0.00066 0.04122,-0.02654 -0.01929,-0.06925c-0.0859,-0.06084 -0.0859,-0.0643 0,-0.03133c0.05309,0.02044 0.14723,0.0549 0.20922,0.07683c0.06199,0.02176 0.11277,0.0671 0.11277,0.10041c0,0.03347 0.02226,0.04699 0.04946,0.03017c0.07601,-0.04699 0.53914,0.18565 0.48291,0.24269c-0.0272,0.02753 -0.00594,0.04138 0.04732,0.03067c0.15399,-0.03116 0.45983,0.06925 0.41779,0.13717c-0.0211,0.03429 0.0061,0.04485 0.06133,0.02358c0.05853,-0.02242 0.11558,0.00429 0.13899,0.06513c0.02176,0.05688 0.08722,0.10354 0.14542,0.10371c0.0582,0.00033 0.19274,0.06001 0.29908,0.13272c0.17889,0.12234 0.46494,0.26742 0.55249,0.28012c0.09414,0.01368 0.51012,0.26545 0.51012,0.30881c0,0.02671 0.14492,0.12201 0.322,0.21186c0.17724,0.08969 0.32216,0.18548 0.32216,0.21269c0,0.02737 0.06463,0.05457 0.14393,0.06051c0.07914,0.00594 0.15399,0.04122 0.16636,0.07815c0.01237,0.03693 0.06513,0.06727 0.11739,0.06727c0.05787,0 0.077,0.03149 0.0488,0.08046c-0.02556,0.04435 -0.02358,0.06001 0.00429,0.03479c0.06265,-0.05639 0.3619,0.09381 0.5731,0.28754c0.30287,0.27814 0.35168,0.30732 0.37838,0.2272c0.0155,-0.04682 0.07518,-0.02424 0.16026,0.061c0.07452,0.07452 0.15366,0.11739 0.17576,0.09546c0.02193,-0.02209 0.05721,0.02539 0.07815,0.10552c0.02407,0.09183 0.07188,0.13272 0.12959,0.11063c0.05062,-0.01946 0.07403,-0.00659 0.0521,0.02852c-0.0216,0.03512 0.00066,0.06364 0.04946,0.06381c0.04897,0 0.15119,0.07156 0.22736,0.15927c0.07617,0.08755 0.21186,0.17773 0.30139,0.20016c0.08969,0.02242 0.16289,0.06677 0.16289,0.09826c0,0.03166 0.03281,0.05754 0.07304,0.05754c0.04006,0 0.12712,0.06232 0.19323,0.13866c0.06611,0.07617 0.12019,0.123 0.12019,0.10387c0,-0.01896 0.10865,0.06595 0.24154,0.18862c0.13289,0.12283 0.31392,0.26198 0.40246,0.3093c0.08854,0.04715 0.20362,0.14624 0.25572,0.22011c0.0521,0.07386 0.12992,0.13421 0.17279,0.13421c0.04303,0 0.09596,0.05655 0.11788,0.12547c0.02226,0.07024 0.07782,0.11112 0.12596,0.09266c0.04781,-0.01847 0.14822,0.05441 0.22637,0.16421c0.07733,0.10849 0.16883,0.19735 0.20345,0.19735c0.03462,0 0.32051,0.25358 0.63526,0.56354c0.31491,0.30996 0.71209,0.69428 0.88273,0.85421c0.17064,0.15976 0.35283,0.35547 0.40493,0.43461c0.0521,0.0793 0.11739,0.1441 0.14492,0.1441c0.08277,0 0.52792,0.47005 0.62536,0.66015c0.04979,0.09744 0.1164,0.17707 0.14806,0.17707c0.03149,0 0.03644,-0.03611 0.01088,-0.08046c-0.02687,-0.04682 -0.02176,-0.05804 0.01237,-0.02687c0.03215,0.02951 0.05853,0.07848 0.05853,0.10865c0,0.03034 0.10156,0.14806 0.22555,0.26182c0.12398,0.11376 0.18911,0.18631 0.14492,0.16125c-0.17427,-0.09859 -0.06875,0.07007 0.10981,0.17559c0.12036,0.07106 0.17707,0.1474 0.15416,0.20708c-0.02226,0.0582 0.00214,0.09464 0.06348,0.09464c0.11079,0 0.3126,0.25028 0.26446,0.3281c-0.01682,0.0272 0.00346,0.0704 0.04485,0.09596c0.05095,0.03149 0.05869,0.01731 0.02374,-0.04386c-0.07881,-0.13816 0.0427,-0.00198 0.29282,0.32826c0.12069,0.15943 0.27122,0.32793 0.33453,0.37476c0.06331,0.04666 0.09826,0.11211 0.07766,0.14525c-0.02061,0.0333 0.00956,0.07848 0.0671,0.10057c0.05738,0.02209 0.08903,0.0798 0.0704,0.12827c-0.01863,0.04864 -0.01303,0.08903 0.01237,0.08986c0.02556,0.00066 0.11887,0.05902 0.20741,0.12959c0.13487,0.1075 0.14014,0.1225 0.03215,0.09315c-0.10486,-0.02852 -0.10189,-0.02094 0.01616,0.04122c0.07963,0.04188 0.14492,0.10486 0.14492,0.13981c0,0.03495 0.05062,0.10206 0.11261,0.14905c0.09134,0.06941 0.09447,0.08606 0.01616,0.08804c-0.05556,0.00148 -0.01434,0.05705 0.09662,0.13058c0.10618,0.07024 0.16586,0.12811 0.13256,0.12827c-0.0333,0.00033 -0.01533,0.0366 0.0399,0.08095c0.19092,0.15284 0.44104,0.58711 0.36519,0.63394c-0.04419,0.02737 -0.01863,0.06117 0.06661,0.08821c0.07601,0.02407 0.12283,0.06875 0.10404,0.09925c-0.0188,0.03034 -0.00429,0.0737 0.03232,0.09629c0.0366,0.02275 0.04979,0.06809 0.02951,0.10107c-0.02044,0.03297 0.00495,0.06001 0.05639,0.06001c0.09579,0 0.20032,0.17031 0.18136,0.29562c-0.00577,0.03842 0.04765,0.12267 0.11871,0.18697c0.07106,0.0643 0.12926,0.15449 0.12926,0.20049c0,0.04583 0.05045,0.11162 0.11211,0.14608c0.06183,0.03462 0.09249,0.0826 0.06826,0.10667c-0.04089,0.04105 -0.00791,0.09645 0.1868,0.31458c0.0427,0.04765 0.05952,0.10469 0.03759,0.12662c-0.02193,0.02193 -0.01072,0.0399 0.02506,0.0399c0.08376,0 0.2272,0.31342 0.17905,0.39124c-0.02028,0.03281 0.00841,0.05952 0.06364,0.05952c0.05738,0 0.10041,0.05507 0.10041,0.12877c0,0.0709 0.02391,0.12893 0.05325,0.12893c0.06166,0 0.37327,0.64367 0.3492,0.72116c-0.0089,0.02836 0.01451,0.05161 0.0521,0.05161c0.03743,0 0.0521,0.02589 0.03248,0.05771c-0.01946,0.03166 0.01072,0.07535 0.06743,0.09711c0.05853,0.02259 0.08705,0.08079 0.06595,0.13553c-0.02028,0.05292 -0.01072,0.09612 0.02127,0.09612c0.05952,0 0.16669,0.2516 0.14377,0.33816c-0.00692,0.02654 0.0211,0.04831 0.06249,0.04831c0.04122,0 0.05573,0.01929 0.03199,0.04303c-0.02374,0.02374 0.00659,0.09793 0.06727,0.16487c0.09513,0.10519 0.09728,0.13009 0.01616,0.18136c-0.07864,0.04979 -0.07601,0.05968 0.01665,0.06051c0.0671,0.00066 0.09744,0.03578 0.07683,0.08936c-0.01863,0.04847 0.01319,0.10634 0.0709,0.12844c0.07304,0.02803 0.0915,0.08161 0.06117,0.1774c-0.02902,0.09167 -0.02011,0.12267 0.02704,0.09348c0.04419,-0.0272 0.05622,-0.00627 0.03215,0.05639c-0.0211,0.0549 -0.00857,0.09991 0.02786,0.09991c0.03644,0 0.0859,0.09431 0.10981,0.20939c0.02407,0.11508 0.08491,0.27451 0.13553,0.35415c0.05045,0.0798 0.07551,0.14492 0.05573,0.14492c-0.01978,0 0.00049,0.06529 0.04485,0.14492c0.11723,0.21005 0.24698,0.56634 0.28737,0.78892c0.01913,0.10634 0.06084,0.22489 0.09266,0.26363c0.03182,0.03858 0.03875,0.08936 0.0155,0.11261c-0.02341,0.02341 -0.00692,0.04237 0.03644,0.04237c0.04353,0 0.06117,0.02902 0.03924,0.06447c-0.02193,0.03545 -0.00742,0.0643 0.03215,0.0643c0.03957,0 0.0554,0.02704 0.03495,0.06001c-0.02028,0.03297 -0.00758,0.07815 0.02836,0.10041c0.03611,0.02226 0.06545,0.10948 0.06545,0.19389c0,0.08442 0.03149,0.17279 0.07007,0.19669c0.03858,0.02374 0.05573,0.09793 0.03825,0.16487c-0.01748,0.06694 -0.00561,0.10535 0.02654,0.08557c0.03215,-0.01995 0.05837,0.02539 0.05837,0.10074c0,0.07518 0.03199,0.19636 0.0709,0.26924c0.04864,0.09085 0.0493,0.11887 0.00198,0.08969c-0.03792,-0.02341 -0.01368,0.08062 0.05358,0.23099c0.06727,0.15036 0.10816,0.29644 0.09085,0.32447c-0.01748,0.02819 0.00247,0.05128 0.04402,0.05128c0.04402,0 0.06166,0.05391 0.04204,0.12877c-0.01847,0.0709 -0.00561,0.12877 0.02852,0.12877c0.03413,0 0.04551,0.02704 0.02506,0.06001c-0.02028,0.03297 -0.00709,0.07848 0.02951,0.10107c0.0366,0.02259 0.04897,0.06925 0.0277,0.10387c-0.02127,0.03446 -0.00396,0.10486 0.03875,0.15614c0.0427,0.05144 0.06232,0.15152 0.04386,0.22258c-0.01863,0.07106 -0.00396,0.12926 0.03248,0.12926c0.0366,0 0.02671,0.04864 -0.02226,0.10898c-0.06001,0.07403 -0.06249,0.09332 -0.00775,0.06051c0.04419,-0.02654 0.08293,-0.0249 0.08573,0.00379c0.00297,0.02869 0.01847,0.12448 0.03446,0.21302c0.01583,0.08854 0.03413,0.21186 0.04056,0.27385c0.00643,0.06199 0.03264,0.11261 0.05837,0.11261c0.02556,0 0.04633,0.05078 0.04616,0.11277c-0.00049,0.18746 0.04979,0.44203 0.10502,0.53122c0.03726,0.06034 0.02638,0.06974 -0.03842,0.03281c-0.07057,-0.04023 -0.07386,-0.03363 -0.015,0.03001c0.04155,0.04501 0.06001,0.12201 0.04105,0.1713c-0.0188,0.0493 0.00115,0.13239 0.04452,0.18449c0.04336,0.05226 0.06199,0.13882 0.04138,0.19241c-0.02044,0.05358 -0.00956,0.09744 0.0244,0.09744c0.0338,0 0.05935,0.06529 0.05672,0.14492c-0.00692,0.21153 0.04765,0.62652 0.08804,0.66675c0.01896,0.01896 0.02275,0.17757 0.00808,0.35217c-0.01467,0.17641 0.00066,0.31755 0.03479,0.31755c0.03363,0 0.04913,0.06298 0.03429,0.14014c-0.01484,0.077 -0.00247,0.17114 0.02753,0.20922c0.03001,0.03809 0.04897,0.2084 0.04221,0.37838c-0.00676,0.17015 0.00627,0.32084 0.02902,0.33486c0.02275,0.01418 0.03858,0.28573 0.03495,0.60344c-0.00346,0.31788 0.01204,0.56651 0.03462,0.55266c0.02242,-0.01401 0.02885,0.87943 0.01418,1.98541c-0.01467,1.10597 -0.02803,2.11945 -0.02951,2.25217c-0.00148,0.13272 -0.02869,0.22522 -0.06051,0.2056c-0.03182,-0.01962 -0.02885,0.04023 0.00643,0.13322c0.03594,0.09464 0.04072,0.21648 0.01072,0.27732c-0.02951,0.05968 -0.04435,0.20131 -0.0333,0.31474c0.01121,0.11327 -0.00247,0.22027 -0.03034,0.23742c-0.02786,0.01715 -0.04386,0.17856 -0.03561,0.35843c0.00824,0.17988 -0.00857,0.31244 -0.03743,0.29463c-0.02885,-0.01764 -0.04452,0.0615 -0.03512,0.17608c0.00956,0.11475 0.00049,0.23659 -0.02011,0.27105c-0.02061,0.03446 -0.04468,0.17938 -0.05375,0.322c-0.01797,0.28836 -0.06199,0.58151 -0.08722,0.58151c-0.01748,0 -0.04221,0.14624 -0.07337,0.43477c-0.01055,0.09744 -0.03924,0.17707 -0.06381,0.17707c-0.02457,0 -0.03677,0.07238 -0.02704,0.16108c0.00973,0.08854 -0.00775,0.16092 -0.03891,0.16092c-0.031,0 -0.04105,0.08689 -0.02242,0.19323c0.0272,0.15432 0.01121,0.1934 -0.07947,0.19422c-0.09695,0.00082 -0.09942,0.01022 -0.01698,0.06348c0.08573,0.0554 0.08573,0.06249 0,0.0643c-0.0859,0.00181 -0.0859,0.0089 0,0.06447c0.05309,0.03429 0.06513,0.06282 0.02671,0.06331c-0.06925,0.00099 -0.08244,0.04567 -0.10519,0.3553c-0.00643,0.08854 -0.03809,0.16092 -0.07024,0.16092c-0.03215,0 -0.04122,0.04468 -0.02028,0.09942c0.04616,0.12003 -0.09249,0.6867 -0.18416,0.75298c-0.03611,0.02605 -0.04204,0.04781 -0.01352,0.04831c0.02869,0.00049 0.02951,0.03726 0.00198,0.08145c-0.02753,0.04435 -0.05655,0.13849 -0.0643,0.20939c-0.02424,0.22324 -0.15383,0.69527 -0.24665,0.89889c-0.1896,0.41647 -0.29051,0.69956 -0.29051,0.81563c0,0.06661 -0.02902,0.12102 -0.06447,0.12102c-0.03528,0 -0.05853,0.02176 -0.05128,0.04831c0.02572,0.09513 -0.16735,0.72445 -0.22225,0.72445c-0.03083,0 -0.04006,0.02572 -0.02077,0.05721c0.01946,0.03133 -0.00742,0.09266 -0.05985,0.13602c-0.05226,0.04353 -0.07996,0.10371 -0.06117,0.13388c0.01863,0.03017 -0.02209,0.16454 -0.09052,0.29859c-0.06842,0.13404 -0.12877,0.26512 -0.13421,0.291c-0.00544,0.02605 -0.04386,0.14196 -0.0854,0.2577c-0.04138,0.11574 -0.06908,0.23214 -0.06133,0.25869c0.00775,0.02654 -0.01171,0.04831 -0.0432,0.04831c-0.03149,0 -0.05325,0.05062 -0.04831,0.11261c0.00495,0.06199 -0.02242,0.10717 -0.06084,0.10024c-0.03842,-0.00692 -0.06974,0.07123 -0.06974,0.17361c0,0.10239 -0.0399,0.23412 -0.08854,0.29282c-0.04864,0.05853 -0.09497,0.15135 -0.10305,0.20626c-0.00791,0.0549 -0.05276,0.12398 -0.09942,0.1535c-0.04666,0.02968 -0.05573,0.05474 -0.02028,0.05573c0.03545,0.00115 0.02621,0.02621 -0.02044,0.05573c-0.04666,0.02968 -0.09134,0.09876 -0.09942,0.1535c-0.00808,0.0549 -0.05309,0.14624 -0.10024,0.20296c-0.04699,0.05672 -0.0671,0.10305 -0.04452,0.10305c0.05655,0 -0.3497,0.7998 -0.41977,0.82651c-0.031,0.01187 -0.05622,0.077 -0.05622,0.14492c0,0.06793 -0.02176,0.12366 -0.04831,0.12366c-0.02671,0.00016 -0.10189,0.13058 -0.16751,0.28985c-0.06545,0.15927 -0.14328,0.28968 -0.17295,0.28968c-0.02951,-0.00016 -0.09052,0.1014 -0.13536,0.22538c-0.04485,0.12398 -0.11904,0.22538 -0.1652,0.22538c-0.046,0 -0.08359,0.06545 -0.08359,0.14542c0,0.08013 -0.05721,0.18136 -0.12695,0.22489c-0.06991,0.04369 -0.11261,0.1169 -0.09497,0.16289c0.01764,0.046 -0.07156,0.20477 -0.19834,0.35283c-0.12679,0.14806 -0.24302,0.33535 -0.25852,0.41614c-0.0155,0.08079 -0.07749,0.18317 -0.13783,0.22736c-0.06034,0.04435 -0.08244,0.08112 -0.04897,0.08194c0.0333,0.00082 -0.01187,0.06133 -0.10041,0.13437c-0.08854,0.0732 -0.11755,0.11393 -0.06447,0.09052c0.05309,-0.02341 0.04039,0.00297 -0.02836,0.05869c-0.06875,0.05589 -0.10387,0.1014 -0.07799,0.1014c0.05045,0 0.02176,0.03957 -0.2755,0.38135c-0.10552,0.12118 -0.17806,0.24236 -0.16158,0.26924c0.01665,0.02704 -0.00363,0.06991 -0.04518,0.09563c-0.04699,0.02902 -0.05804,0.01863 -0.02935,-0.02786c0.02523,-0.04089 0.01517,-0.07419 -0.02226,-0.07419c-0.03759,0 -0.06826,0.04435 -0.06826,0.09859c0,0.05424 -0.04518,0.11591 -0.10024,0.13701c-0.05523,0.02127 -0.08606,0.07584 -0.06859,0.12151c0.01764,0.04567 -0.01154,0.09958 -0.06463,0.12003c-0.05325,0.02044 -0.08178,0.06117 -0.06364,0.09052c0.01814,0.02935 -0.10321,0.18153 -0.26973,0.33832c-0.16636,0.15663 -0.29908,0.29941 -0.29463,0.31722c0.01797,0.07403 -0.05738,0.19059 -0.10453,0.16141c-0.02786,-0.01715 -0.06859,0.04006 -0.09052,0.12745c-0.02193,0.08722 -0.09744,0.18944 -0.16784,0.2272c-0.07057,0.03759 -0.12811,0.11261 -0.12811,0.16669c0,0.05391 -0.02687,0.08145 -0.05985,0.06117c-0.03281,-0.02028 -0.07815,0.02143 -0.1009,0.09282c-0.02259,0.07139 -0.06809,0.12976 -0.10123,0.12976c-0.03297,0 -0.05276,0.03545 -0.04386,0.07897c0.00874,0.04336 -0.04996,0.08903 -0.13058,0.10123c-0.09513,0.01451 -0.14047,0.06034 -0.12893,0.13041c0.00989,0.05935 -0.0183,0.10074 -0.06265,0.09183c-0.04419,-0.0089 -0.08046,0.04188 -0.08046,0.11277c0,0.07156 -0.04287,0.12877 -0.09662,0.12877c-0.05309,0 -0.09728,0.02176 -0.09793,0.04831c-0.00082,0.02654 -0.06133,0.12069 -0.13454,0.20939c-0.07304,0.08854 -0.11376,0.11739 -0.09035,0.0643c0.02341,-0.05309 -0.02473,-0.00956 -0.10684,0.09662c-0.13503,0.17444 -1.00556,1.04678 -1.54717,1.5503c-0.11706,0.10898 -0.25011,0.25374 -0.29578,0.32216c-0.04551,0.06826 -0.0643,0.08062 -0.04171,0.02753c0.02259,-0.05325 -0.03644,-0.00247 -0.13107,0.11261c-0.0948,0.11508 -0.21532,0.20939 -0.26792,0.20939c-0.05276,0 -0.07815,0.02852 -0.05639,0.06364c0.02242,0.03644 -0.0033,0.04732 -0.06067,0.02523c-0.06364,-0.0244 -0.09991,-0.00231 -0.09991,0.06084c0,0.05457 -0.05837,0.11772 -0.12976,0.14031c-0.07139,0.02275 -0.1131,0.06809 -0.09282,0.1009c0.02028,0.03297 0.00725,0.05985 -0.02902,0.05985c-0.03627,0 -0.1685,0.09002 -0.29364,0.19983c-0.12514,0.10997 -0.22769,0.18581 -0.22769,0.16867c0,-0.01731 -0.11079,0.07386 -0.24632,0.20263c-0.42438,0.40279 -0.56189,0.50122 -0.65834,0.47104c-0.05144,-0.01616 -0.0732,-0.00742 -0.04831,0.01929c0.04402,0.04748 -0.09266,0.2267 -0.17295,0.2267c-0.02209,0 -0.13041,0.08409 -0.24055,0.18713c-0.1164,0.10865 -0.24072,0.17147 -0.29694,0.15003c-0.06282,-0.02424 -0.08029,-0.01072 -0.04996,0.03825c0.02556,0.04138 0.01583,0.07535 -0.02176,0.07535c-0.03743,0 -0.12827,0.06018 -0.20197,0.13371c-0.07353,0.0737 -0.16768,0.12217 -0.20922,0.10766c-0.07502,-0.02589 -0.31342,0.17559 -0.26495,0.2239c0.01385,0.01385 -0.07551,0.06166 -0.19867,0.10618c-0.123,0.04452 -0.22373,0.10964 -0.22373,0.14492c0,0.03528 -0.02918,0.046 -0.06496,0.02391c-0.03561,-0.02193 -0.08211,0.00511 -0.10338,0.06034c-0.0211,0.05507 -0.06463,0.08409 -0.09645,0.0643c-0.03199,-0.01962 -0.0765,0.01187 -0.09892,0.07024c-0.02968,0.07749 -0.05375,0.08491 -0.08903,0.0277c-0.0333,-0.05375 -0.06216,-0.03512 -0.09233,0.06001c-0.02407,0.07601 -0.07238,0.12069 -0.107,0.09925c-0.03479,-0.0216 -0.11574,0.02143 -0.18004,0.09563c-0.0643,0.07403 -0.16421,0.1347 -0.22208,0.1347c-0.05787,0 -0.10502,0.02902 -0.10502,0.06447c0,0.03528 -0.04353,0.0643 -0.09662,0.0643c-0.05325,0 -0.09662,0.03067 -0.09662,0.06826c0,0.03743 -0.02902,0.05029 -0.06447,0.02836c-0.03545,-0.02193 -0.06447,-0.0122 -0.06447,0.02143c0,0.03363 -0.07238,0.07947 -0.16092,0.10173c-0.08854,0.02209 -0.16108,0.06793 -0.16108,0.10156c0,0.03363 -0.05062,0.04287 -0.11261,0.02061c-0.06199,-0.02226 -0.09282,-0.0183 -0.06842,0.00874c0.0244,0.02704 -0.13503,0.14047 -0.35431,0.25176c-0.21912,0.11145 -0.43675,0.2389 -0.48357,0.28309c-0.08029,0.07601 -0.17559,0.10552 -0.28523,0.08821c-0.02654,-0.00429 -0.04831,0.02473 -0.04831,0.0643c0,0.04023 -0.05672,0.05705 -0.12893,0.03825c-0.0709,-0.01863 -0.11261,-0.00758 -0.09282,0.02457c0.01995,0.03215 -0.00907,0.05853 -0.0643,0.05853c-0.05523,0 -0.10041,0.0338 -0.10041,0.07502c0,0.04138 -0.01781,0.05721 -0.03973,0.03528c-0.02193,-0.02193 -0.08211,0.00231 -0.13355,0.05375c-0.05144,0.05144 -0.17477,0.09348 -0.27418,0.09348c-0.10799,0 -0.21631,0.05161 -0.26924,0.12827c-0.04847,0.07057 -0.15069,0.13717 -0.22687,0.14789c-0.07634,0.01088 -0.18466,0.05771 -0.24072,0.10436c-0.05622,0.04666 -0.14509,0.06826 -0.19768,0.04798c-0.05259,-0.02011 -0.14097,0.00874 -0.19636,0.06414c-0.0554,0.05556 -0.17213,0.10502 -0.25935,0.10997c-0.08738,0.00511 -0.15877,0.02753 -0.15877,0.04996c0,0.04551 -0.25902,0.13932 -0.34492,0.12497c-0.03034,-0.00511 -0.09843,0.02671 -0.15135,0.07073c-0.05309,0.04402 -0.12959,0.08639 -0.17031,0.09431c-0.16965,0.03314 -0.52825,0.18911 -0.57228,0.24896c-0.02589,0.03528 -0.04765,0.03908 -0.04831,0.00808c-0.00049,-0.03083 -0.04402,-0.02028 -0.09662,0.02341c-0.05276,0.04369 -0.13684,0.06364 -0.18697,0.04452c-0.05012,-0.01929 -0.11096,-0.01533 -0.13503,0.0089c-0.02407,0.02407 -0.06315,0.04485 -0.08672,0.04616c-0.02374,0.00115 -0.1009,0.03297 -0.1718,0.07057c-0.0709,0.03759 -0.27369,0.10684 -0.45076,0.15399c-0.17724,0.04699 -0.33717,0.1075 -0.35547,0.13454c-0.01847,0.02687 -0.11986,0.06282 -0.22538,0.07996c-0.10568,0.01698 -0.19933,0.03347 -0.20824,0.03627c-0.00874,0.00297 -0.02605,-0.00181 -0.03842,-0.01072c-0.0122,-0.0089 -0.06298,0.01484 -0.11261,0.05276c-0.04979,0.03776 -0.17576,0.07419 -0.27996,0.08079c-0.10436,0.00659 -0.20659,0.0394 -0.22736,0.07304c-0.03743,0.06034 -0.41482,0.138 -0.69362,0.14278c-0.0831,0.00132 -0.12695,0.03083 -0.10321,0.06925c0.02621,0.04254 -0.02028,0.05523 -0.12728,0.03479c-0.10321,-0.01978 -0.15317,-0.00725 -0.12877,0.03215c0.02506,0.04056 -0.02341,0.04864 -0.13074,0.02176c-0.09596,-0.02407 -0.17064,-0.01583 -0.17064,0.01913c0,0.03396 -0.05787,0.05078 -0.12877,0.0371c-0.0709,-0.01368 -0.12877,0.00297 -0.12877,0.03677c0,0.03396 -0.08689,0.04633 -0.19323,0.02753c-0.10634,-0.01863 -0.19323,-0.00643 -0.19323,0.02704c0,0.03363 -0.07238,0.04798 -0.16092,0.03199c-0.0887,-0.01616 -0.16108,-0.00462 -0.16108,0.02572c0,0.03017 -0.04353,0.0549 -0.09662,0.0549c-0.05309,0 -0.09711,-0.03149 -0.09761,-0.06974c-0.00049,-0.03842 -0.02836,-0.02638 -0.06199,0.02671c-0.05672,0.08986 -0.22654,0.12629 -0.65949,0.14146c-0.09843,0.00346 -0.15795,0.03413 -0.13569,0.07007c0.02539,0.04089 -0.04732,0.04765 -0.20148,0.0188c-0.13833,-0.02605 -0.22588,-0.02061 -0.20543,0.01253c0.04666,0.07551 -0.1624,0.07864 -0.2577,0.00379c-0.04649,-0.03644 -0.11195,-0.01962 -0.17707,0.04567c-0.07667,0.07667 -0.10371,0.08128 -0.10436,0.0183c-0.00082,-0.06298 -0.01731,-0.05985 -0.06348,0.01154c-0.05556,0.08573 -0.06265,0.08573 -0.06447,0c-0.00115,-0.06265 -0.01863,-0.07188 -0.0493,-0.02589c-0.02589,0.03891 -0.11244,0.06545 -0.19208,0.05902c-0.0798,-0.00643 -0.14492,0.00874 -0.14492,0.0338c0,0.02506 -0.15218,0.0488 -0.33816,0.05309c-0.18598,0.00412 -0.55546,0.02325 -0.82123,0.04221c-0.87993,0.06298 -4.3792,0.08277 -4.34326,0.02457c0.01929,-0.03116 -0.00742,-0.04039 -0.05919,-0.02044c-0.05177,0.01978 -0.19851,0.00725 -0.32595,-0.02803c-0.12761,-0.03512 -0.2178,-0.04105 -0.20032,-0.01286c0.03677,0.05952 -0.48193,0.05375 -0.57772,-0.00643c-0.03545,-0.02226 -0.18796,-0.03133 -0.33898,-0.02011c-0.16059,0.01187 -0.25902,-0.00495 -0.23709,-0.04039c0.02242,-0.03627 -0.08112,-0.04913 -0.25572,-0.03215c-0.16141,0.01583 -0.30683,0.00692 -0.32348,-0.01978c-0.01649,-0.02687 -0.12563,-0.04336 -0.24236,-0.03677c-0.1169,0.00659 -0.23808,-0.00247 -0.2694,-0.02028c-0.05622,-0.03199 -0.41795,-0.07996 -0.63542,-0.08425c-0.06199,-0.00115 -0.11261,-0.02786 -0.11261,-0.05919c0,-0.03149 -0.10041,-0.04748 -0.22307,-0.03545c-0.12267,0.01187 -0.2206,0.00313 -0.2178,-0.01946c0.01533,-0.12102 -0.01913,-0.15877 -0.07057,-0.07749c-0.05078,0.08046 -0.07337,0.08046 -0.17229,0c-0.09975,-0.08095 -0.10684,-0.08046 -0.05705,0.00412c0.04864,0.0826 0.04155,0.08409 -0.04913,0.01055c-0.05837,-0.04732 -0.13783,-0.06644 -0.17641,-0.04254c-0.03875,0.02391 -0.1197,0.02292 -0.18004,-0.00214c-0.06018,-0.02506 -0.19472,-0.05375 -0.29892,-0.06364c-0.10404,-0.00989 -0.22175,-0.06232 -0.26132,-0.1164c-0.04649,-0.06364 -0.10371,-0.07897 -0.16141,-0.0432c-0.05111,0.03149 -0.13915,0.02869 -0.2056,-0.00692c-0.06397,-0.03429 -0.11624,-0.04122 -0.11624,-0.0155c0,0.02589 -0.03908,-0.00659 -0.08672,-0.07188c-0.06018,-0.08211 -0.1009,-0.09579 -0.13256,-0.04452c-0.02523,0.04089 -0.07485,0.07419 -0.1103,0.07419c-0.03545,0 -0.04847,-0.02589 -0.02885,-0.05754c0.01962,-0.03166 -0.02935,-0.05952 -0.10882,-0.06183c-0.27435,-0.00824 -0.36998,-0.031 -0.36998,-0.08837c0,-0.03149 -0.02556,-0.04155 -0.05705,-0.02226c-0.04996,0.031 -0.28441,-0.0249 -0.58695,-0.14014c-0.05309,-0.02011 -0.12135,-0.031 -0.15168,-0.02424c-0.03034,0.00692 -0.09101,-0.01731 -0.1347,-0.05358c-0.04386,-0.03644 -0.09612,-0.04979 -0.11607,-0.02968c-0.02011,0.01995 -0.12613,-0.01006 -0.2356,-0.06661c-0.10964,-0.05672 -0.19917,-0.08887 -0.19917,-0.07156c0,0.01748 -0.13041,-0.02424 -0.28985,-0.09266c-0.15943,-0.06826 -0.28985,-0.10898 -0.28985,-0.09052c0,0.01863 -0.03627,0.01121 -0.08046,-0.01649c-0.04435,-0.0277 -0.12283,-0.05672 -0.17444,-0.06447c-0.10338,-0.01566 -0.21532,-0.0615 -0.6468,-0.26479c-0.15927,-0.07502 -0.34772,-0.14525 -0.41861,-0.15597c-0.07073,-0.01072 -0.16718,-0.06298 -0.21401,-0.11607c-0.07584,-0.0859 -0.0798,-0.0859 -0.03594,0c0.04386,0.08573 0.03611,0.08573 -0.06958,0c-0.06529,-0.05325 -0.12827,-0.092 -0.13965,-0.08623c-0.05391,0.02704 -0.28144,-0.06397 -0.28144,-0.11261c0,-0.03017 -0.04353,-0.03809 -0.09662,-0.01781c-0.05309,0.02044 -0.09662,0.00808 -0.09662,-0.0272c0,-0.03545 -0.04501,-0.08178 -0.09991,-0.10288c-0.05672,-0.02176 -0.0831,-0.01105 -0.061,0.02457c0.04583,0.07419 -0.15168,0.01253 -0.28028,-0.08755c-0.04781,-0.03726 -0.13355,-0.07452 -0.19043,-0.08293c-0.16998,-0.0249 -0.39685,-0.16685 -0.36058,-0.22555c0.01863,-0.03017 -0.01863,-0.05688 -0.08277,-0.05968c-0.2272,-0.00956 -0.35448,-0.05095 -0.46527,-0.15119c-0.06166,-0.05589 -0.14888,-0.1014 -0.19373,-0.1014c-0.09925,0 -0.46972,-0.20065 -0.53518,-0.28985c-0.03166,-0.04303 -0.04798,-0.04303 -0.0493,0c-0.00132,0.04006 -0.01978,0.03875 -0.0493,-0.00346c-0.02605,-0.03726 -0.14872,-0.11607 -0.2727,-0.1751c-0.12398,-0.05902 -0.31062,-0.16454 -0.41466,-0.23445c-0.10404,-0.06991 -0.21269,-0.11261 -0.24154,-0.0948c-0.02869,0.01781 -0.05226,0.00511 -0.05226,-0.02803c0,-0.0333 -0.09431,-0.09859 -0.20939,-0.14509c-0.11508,-0.04649 -0.22373,-0.1009 -0.24154,-0.12069c-0.01764,-0.01978 -0.11821,-0.0793 -0.2234,-0.13239c-0.10519,-0.05309 -0.24385,-0.14822 -0.30831,-0.21153c-0.0643,-0.06331 -0.14113,-0.10008 -0.17081,-0.08178c-0.02968,0.0183 -0.14542,-0.05424 -0.25737,-0.16125c-0.11178,-0.107 -0.23165,-0.17691 -0.26627,-0.15564c-0.03446,0.02143 -0.0793,-0.00429 -0.09942,-0.05688c-0.02028,-0.05259 -0.15053,-0.14113 -0.28935,-0.19669c-0.13899,-0.05573 -0.25275,-0.13206 -0.25275,-0.16982c0,-0.03792 -0.02902,-0.05078 -0.0643,-0.02902c-0.03545,0.02193 -0.06447,0.01105 -0.06447,-0.02407c0,-0.03512 -0.05655,-0.08178 -0.12547,-0.10371c-0.08293,-0.02621 -0.11195,-0.07502 -0.08573,-0.1436c0.02506,-0.06529 0.01401,-0.08788 -0.02968,-0.061c-0.09134,0.05655 -0.28391,-0.0188 -0.23791,-0.09299c0.01946,-0.03166 -0.02506,-0.05754 -0.09909,-0.05754c-0.07403,0 -0.15135,-0.04353 -0.17163,-0.09662c-0.02044,-0.05325 -0.06331,-0.09662 -0.09513,-0.09662c-0.03199,0 -0.14245,-0.07518 -0.2455,-0.16702c-0.10305,-0.09183 -0.21153,-0.16636 -0.24088,-0.16553c-0.02951,0.00066 -0.077,-0.04039 -0.10552,-0.09134c-0.02852,-0.05111 -0.19735,-0.19076 -0.37509,-0.31046c-0.17773,-0.1197 -0.32101,-0.24253 -0.31837,-0.27303c0.00247,-0.03034 -0.02539,-0.0554 -0.06199,-0.0554c-0.03677,0 -0.08755,-0.03149 -0.11277,-0.07007c-0.02523,-0.03858 -0.19917,-0.1746 -0.38646,-0.30254c-0.18713,-0.12778 -0.34656,-0.25572 -0.35415,-0.28408c-0.00758,-0.02836 -0.03594,-0.04435 -0.06282,-0.03528c-0.02704,0.0089 -0.10667,-0.07799 -0.17691,-0.19323c-0.07024,-0.11525 -0.12794,-0.17163 -0.12811,-0.1253c0,0.04633 -0.03116,0.06513 -0.06892,0.04188c-0.03792,-0.02341 -0.05391,-0.08128 -0.03578,-0.1286c0.02028,-0.05292 -0.0216,-0.09447 -0.10832,-0.10783c-0.07782,-0.01187 -0.1347,-0.0554 -0.12662,-0.09662c0.00824,-0.04138 -0.04303,-0.09348 -0.1136,-0.11591c-0.07073,-0.02242 -0.11376,-0.06447 -0.09579,-0.09348c0.01781,-0.02902 -0.04023,-0.10041 -0.12926,-0.15861c-0.24632,-0.16141 -0.77309,-0.68587 -0.75496,-0.75166c0.0089,-0.03199 -0.01253,-0.0582 -0.04781,-0.0582c-0.09019,0 -0.96649,-0.8674 -0.96649,-0.95676c0,-0.04056 -0.04353,-0.0737 -0.09662,-0.0737c-0.05309,0 -0.09662,-0.0399 -0.09662,-0.0887c0,-0.0488 -0.06513,-0.13701 -0.14492,-0.1962c-0.07963,-0.05902 -0.1042,-0.08705 -0.05441,-0.06232c0.05902,0.02951 0.07452,0.01929 0.04452,-0.02918c-0.02523,-0.04089 -0.08771,-0.07436 -0.13882,-0.07436c-0.05095,0 -0.09266,-0.03644 -0.09266,-0.08112c0,-0.04468 -0.05721,-0.11673 -0.12712,-0.16042c-0.06991,-0.04369 -0.11129,-0.12019 -0.09216,-0.16998c0.01913,-0.04996 -0.00066,-0.11261 -0.04402,-0.13932c-0.05358,-0.03314 -0.06364,-0.01978 -0.03166,0.04171c0.02589,0.04979 -0.01303,0.01797 -0.08656,-0.07057c-0.07353,-0.08854 -0.16273,-0.19587 -0.19818,-0.23874c-0.03545,-0.0427 -0.06447,-0.09744 -0.06447,-0.12135c0,-0.02407 -0.06513,-0.10799 -0.14492,-0.18647c-0.07963,-0.07864 -0.25506,-0.27039 -0.3896,-0.42603c-0.1347,-0.15581 -0.29413,-0.33832 -0.35431,-0.40575c-0.08211,-0.09216 -0.0854,-0.10981 -0.0127,-0.07057c0.08343,0.04485 -0.00148,-0.06249 -0.37047,-0.46824c-0.04419,-0.04864 -0.08046,-0.1192 -0.08046,-0.15679c0,-0.03759 -0.06232,-0.1225 -0.13866,-0.18862c-0.07617,-0.06628 -0.11772,-0.12036 -0.092,-0.12036c0.02572,0 -0.00049,-0.04715 -0.0582,-0.10486c-0.05771,-0.05771 -0.08854,-0.14789 -0.06826,-0.20032c0.02473,-0.06447 0.00627,-0.08392 -0.05639,-0.05985c-0.06447,0.02473 -0.08573,-0.00132 -0.06958,-0.08573c0.01715,-0.08903 -0.00396,-0.11096 -0.0793,-0.08194c-0.0671,0.02572 -0.08705,0.01385 -0.05721,-0.03429c0.02506,-0.04039 -0.01368,-0.12431 -0.08606,-0.18614c-0.07238,-0.06199 -0.13157,-0.1652 -0.13157,-0.22917c0,-0.06414 -0.04336,-0.13322 -0.09629,-0.1535c-0.05292,-0.02028 -0.08013,-0.06282 -0.06051,-0.09464c0.01962,-0.03166 0.00346,-0.05754 -0.03578,-0.05754c-0.08095,0 -0.26264,-0.39157 -0.21648,-0.46626c0.01665,-0.02704 -0.015,-0.04897 -0.07024,-0.04897c-0.05655,0 -0.10041,-0.05474 -0.10041,-0.12563c0,-0.06908 -0.03792,-0.14888 -0.08425,-0.17707c-0.04633,-0.02836 -0.12234,-0.14575 -0.16883,-0.26083c-0.04649,-0.11508 -0.10535,-0.20939 -0.13074,-0.20939c-0.03759,0 -0.1873,-0.25292 -0.22868,-0.3863c-0.05259,-0.16933 -0.16537,-0.38201 -0.22077,-0.41631c-0.03759,-0.02325 -0.06826,-0.09612 -0.06826,-0.16191c0,-0.06578 -0.02885,-0.12926 -0.06397,-0.14097c-0.03512,-0.01187 -0.07024,-0.09909 -0.07799,-0.19406c-0.00791,-0.0948 -0.03578,-0.1591 -0.06216,-0.14278c-0.07551,0.04666 -0.2633,-0.2821 -0.21021,-0.368c0.03017,-0.04897 0.02044,-0.06034 -0.02654,-0.03133c-0.06595,0.04072 -0.107,-0.07716 -0.08211,-0.23527c0.00429,-0.02671 -0.0244,-0.04831 -0.06364,-0.04831c-0.03924,0 -0.05556,-0.04105 -0.03627,-0.09134c0.01929,-0.05012 -0.00692,-0.10733 -0.05804,-0.12695c-0.05128,-0.01978 -0.08705,-0.05837 -0.07963,-0.0859c0.00725,-0.02753 -0.04963,-0.17724 -0.12662,-0.33255c-0.07716,-0.15531 -0.12349,-0.3093 -0.10321,-0.34211c0.02028,-0.03297 -0.00874,-0.1103 -0.06447,-0.1718c-0.05589,-0.06166 -0.10948,-0.18301 -0.11904,-0.26973c-0.00973,-0.08672 -0.05391,-0.19587 -0.0981,-0.24269c-0.04435,-0.04682 -0.08062,-0.13619 -0.08062,-0.19851c0,-0.06249 -0.0216,-0.1352 -0.04814,-0.16191c-0.02671,-0.02654 -0.04946,-0.0676 -0.05062,-0.09118c-0.00132,-0.02358 -0.03644,-0.10436 -0.07831,-0.17938c-0.04171,-0.07502 -0.05771,-0.15465 -0.03528,-0.17707c0.02242,-0.02242 0.00198,-0.04072 -0.04518,-0.04072c-0.04715,0 -0.06677,-0.01896 -0.04353,-0.04237c0.02341,-0.02325 0.01006,-0.08128 -0.02935,-0.12877c-0.0394,-0.04748 -0.05474,-0.08639 -0.03396,-0.08639c0.02077,0 -0.01913,-0.13305 -0.08887,-0.29562c-0.06974,-0.16273 -0.11195,-0.31952 -0.09398,-0.34871c0.01814,-0.02935 0.00544,-0.06282 -0.02819,-0.07469c-0.03347,-0.01187 -0.07568,-0.10387 -0.09365,-0.20444c-0.01814,-0.10041 -0.06677,-0.22357 -0.10832,-0.27369c-0.04155,-0.04996 -0.05177,-0.09101 -0.02259,-0.09101c0.02918,0 0.02044,-0.03248 -0.01929,-0.07221c-0.03973,-0.03973 -0.05688,-0.11211 -0.03825,-0.16108c0.0188,-0.0488 0.00016,-0.0887 -0.04122,-0.0887c-0.04138,0 -0.06694,-0.05062 -0.05688,-0.11261c0.01022,-0.06199 -0.00396,-0.14888 -0.03166,-0.19307c-0.0732,-0.11657 -0.12118,-0.33766 -0.13107,-0.60377c-0.00643,-0.17246 -0.03248,-0.22406 -0.09975,-0.19834c-0.05639,0.0216 -0.07403,0.00725 -0.04616,-0.03776c0.02457,-0.03973 0.0028,-0.17279 -0.04847,-0.29545c-0.05111,-0.12267 -0.077,-0.23907 -0.05721,-0.25885c0.01978,-0.01978 -0.00132,-0.08079 -0.04682,-0.13569c-0.04551,-0.05474 -0.06447,-0.11805 -0.04204,-0.14047c0.02259,-0.02242 0.00495,-0.08524 -0.03908,-0.13965c-0.05952,-0.07353 -0.06001,-0.08689 -0.00214,-0.0521c0.05259,0.03166 0.04798,-0.01072 -0.01451,-0.13107c-0.05062,-0.09777 -0.07799,-0.25819 -0.06067,-0.35629c0.01797,-0.10255 0.00247,-0.17856 -0.03677,-0.17856c-0.03743,0 -0.06133,-0.03627 -0.05309,-0.08062c0.00824,-0.04419 -0.02242,-0.23989 -0.06826,-0.43461c-0.10865,-0.46099 -0.1563,-0.76353 -0.15449,-0.98017c0.00082,-0.10206 -0.02572,-0.15844 -0.06364,-0.13503c-0.04155,0.02572 -0.05045,-0.03297 -0.0244,-0.16289c0.0277,-0.13849 0.0155,-0.20494 -0.03825,-0.2084c-0.05342,-0.0033 -0.05062,-0.01632 0.0089,-0.0399c0.07403,-0.02951 0.07403,-0.04369 0,-0.0915c-0.07304,-0.04715 -0.07156,-0.06727 0.00874,-0.12003c0.07469,-0.04897 0.07683,-0.06364 0.00923,-0.06447c-0.05111,-0.00049 -0.07205,-0.04105 -0.05029,-0.09761c0.02028,-0.05309 0.00165,-0.09695 -0.04138,-0.09761c-0.04963,-0.00066 -0.04303,-0.02391 0.01814,-0.06331c0.08573,-0.05556 0.08573,-0.06265 0,-0.06447c-0.0859,-0.00181 -0.0859,-0.0089 0,-0.06447c0.07535,-0.04864 0.07716,-0.06265 0.00857,-0.06331c-0.05622,-0.00066 -0.07584,-0.04765 -0.05441,-0.12976c0.01847,-0.0709 0.01105,-0.12893 -0.01665,-0.12893c-0.0277,0 -0.05029,-0.07238 -0.05029,-0.16092c0,-0.08854 0.02885,-0.16108 0.0643,-0.16108c0.04056,0 0.03908,-0.03017 -0.00412,-0.08211c-0.03743,-0.04518 -0.05952,-0.16042 -0.04913,-0.25588c0.01055,-0.09546 0.00148,-0.16273 -0.02011,-0.14938c-0.05573,0.03446 -0.07452,-0.73632 -0.0732,-2.99047c0.00132,-2.35621 0.00627,-2.51646 0.07601,-2.47343c0.02984,0.01847 0.02523,-0.04254 -0.01006,-0.13536c-0.08062,-0.21219 -0.08194,-0.30782 -0.00346,-0.25935c0.03627,0.02242 0.05161,-0.11821 0.03809,-0.35052c-0.01253,-0.21335 0.00082,-0.38795 0.02968,-0.38795c0.02885,0 0.03627,-0.12036 0.01665,-0.26742c-0.02308,-0.17196 -0.0127,-0.25308 0.02902,-0.2272c0.04072,0.02506 0.0582,-0.05589 0.04682,-0.21565c-0.01039,-0.14723 0.01055,-0.25572 0.04946,-0.25572c0.04056,0 0.05243,-0.07617 0.02951,-0.19076c-0.02094,-0.10486 -0.00956,-0.20824 0.02523,-0.22983c0.03479,-0.0216 0.04666,-0.06611 0.02621,-0.09909c-0.02028,-0.03297 -0.00627,-0.06001 0.03116,-0.06001c0.03759,0 0.06826,-0.03067 0.06826,-0.06809c0,-0.03759 -0.03215,-0.04847 -0.07123,-0.02424c-0.0493,0.0305 -0.05589,-0.00313 -0.02143,-0.10882c0.02753,-0.08425 0.05243,-0.22555 0.0554,-0.31408c0.0028,-0.08854 0.03166,-0.20197 0.06381,-0.25193c0.03215,-0.05012 0.0643,-0.26611 0.07139,-0.48011c0.00692,-0.21384 0.04419,-0.39932 0.0826,-0.41218c0.03842,-0.01286 0.05655,-0.05804 0.04023,-0.10024c-0.01616,-0.04237 0.03116,-0.29413 0.10519,-0.55942c0.07403,-0.26528 0.13437,-0.53254 0.13388,-0.59387c-0.00049,-0.06117 0.02506,-0.12745 0.05672,-0.1469c0.03166,-0.01962 0.04105,-0.07815 0.0211,-0.13009c-0.01995,-0.05194 -0.00511,-0.09464 0.03314,-0.09447c0.03809,0 0.0554,-0.03627 0.03875,-0.08062c-0.04501,-0.11887 0.25687,-1.02733 0.32167,-0.96814c0.0305,0.0277 0.03297,0.01138 0.00544,-0.03627c-0.0277,-0.04765 -0.02209,-0.14905 0.0122,-0.22538c0.03429,-0.07634 0.14113,-0.38514 0.23742,-0.6862c0.09629,-0.30106 0.21664,-0.64152 0.26726,-0.75677c0.05062,-0.11508 0.13371,-0.30353 0.18449,-0.41861c0.05062,-0.11508 0.1352,-0.33964 0.18763,-0.49907c0.05259,-0.15943 0.13998,-0.37476 0.19439,-0.47846c0.05424,-0.10371 0.08392,-0.21236 0.06595,-0.24154c-0.01797,-0.02902 -0.0028,-0.05292 0.03347,-0.05292c0.03644,0 0.04765,-0.04814 0.02506,-0.10717c-0.02753,-0.07205 -0.01632,-0.09183 0.03429,-0.06051c0.06743,0.04155 0.11228,-0.12613 0.08128,-0.30403c-0.00495,-0.02918 0.02061,-0.03462 0.05688,-0.0122c0.03627,0.02242 0.06958,0.01006 0.07403,-0.02753c0.00841,-0.07139 0.02951,-0.16388 0.05589,-0.24517c0.00857,-0.02671 0.0122,-0.07007 0.00808,-0.09662c-0.00412,-0.02671 0.02143,-0.04831 0.05672,-0.04831c0.03545,0 0.06447,-0.05441 0.06447,-0.12102c0,-0.06644 0.0432,-0.15663 0.09596,-0.20049c0.05276,-0.04369 0.08046,-0.10436 0.06166,-0.13487c-0.0427,-0.06892 0.12217,-0.39454 0.25605,-0.50567c0.05507,-0.04567 0.08425,-0.10882 0.0648,-0.14014c-0.01929,-0.03149 -0.00462,-0.05721 0.03297,-0.05721c0.03743,0 0.06826,-0.05787 0.06826,-0.12877c0,-0.0709 0.0216,-0.12926 0.04831,-0.12976c0.02654,-0.00066 0.12069,-0.15267 0.20922,-0.33816c0.08854,-0.18548 0.17707,-0.35168 0.19653,-0.36932c0.01962,-0.01764 0.08755,-0.14377 0.15102,-0.27996c0.06331,-0.13635 0.16322,-0.30386 0.22192,-0.37245c0.05869,-0.06859 0.11047,-0.15267 0.11492,-0.18697c0.00429,-0.03429 0.01154,-0.09216 0.01599,-0.12877c0.00445,-0.0366 0.07337,-0.09266 0.153,-0.12464c0.07963,-0.03215 0.107,-0.06018 0.06051,-0.06232c-0.04633,-0.00231 -0.06595,-0.03363 -0.04369,-0.06958c0.02209,-0.03611 0.07188,-0.046 0.1103,-0.02226c0.04006,0.02473 0.05144,0.01335 0.02671,-0.02671c-0.02374,-0.03842 -0.01335,-0.08837 0.02325,-0.11096c0.0366,-0.02275 0.04715,-0.07271 0.02325,-0.11112c-0.02473,-0.04006 -0.01335,-0.05144 0.02654,-0.02671c0.06496,0.04006 0.18499,-0.18796 0.15614,-0.29694c-0.00692,-0.02654 0.03248,-0.04831 0.08771,-0.04831c0.05523,0 0.08392,-0.02671 0.06364,-0.05952c-0.04369,-0.07073 0.20955,-0.52018 0.29314,-0.52018c0.03199,0 0.05342,-0.02176 0.04781,-0.04831c-0.02242,-0.10618 0.09266,-0.27039 0.16191,-0.23082c0.04056,0.02325 0.05309,0.01929 0.0277,-0.00874c-0.06809,-0.07551 0.07287,-0.30271 0.15581,-0.25143c0.04039,0.02506 0.05309,0.01484 0.02918,-0.02374c-0.02308,-0.03743 0.04501,-0.16075 0.15102,-0.27435c0.10618,-0.11376 0.19307,-0.24352 0.19307,-0.28853c0,-0.11096 0.16009,-0.23692 0.22555,-0.17773c0.02902,0.02638 0.02984,0.00841 0.00198,-0.0399c-0.03034,-0.05226 -0.01583,-0.10931 0.03611,-0.14146c0.16933,-0.10453 0.00544,-0.12036 -1.32937,-0.1286c-1.20902,-0.00725 -1.93726,-0.06348 -2.21887,-0.17114c-0.05309,-0.02028 -0.17361,-0.04485 -0.26775,-0.05441c-0.09414,-0.00973 -0.2389,-0.05507 -0.322,-0.10107c-0.08293,-0.046 -0.17674,-0.07601 -0.20856,-0.06677c-0.03166,0.00923 -0.13503,-0.05754 -0.22983,-0.14822c-0.0948,-0.09085 -0.1929,-0.14443 -0.21796,-0.11937c-0.02523,0.02523 -0.17526,-0.0953 -0.3337,-0.26775c-0.15828,-0.17262 -0.28787,-0.28721 -0.28787,-0.25489c0,0.07057 -0.32134,-0.26627 -0.32381,-0.33964c-0.00099,-0.02803 -0.08788,-0.13553 -0.19323,-0.2389c-0.10535,-0.10338 -0.19142,-0.24104 -0.19142,-0.30584c0,-0.06496 -0.0338,-0.11821 -0.07518,-0.11821c-0.04122,0 -0.05573,-0.01929 -0.03199,-0.04303c0.02374,-0.02374 -0.00214,-0.09299 -0.05738,-0.15399c-0.05523,-0.061 -0.11129,-0.19373 -0.12448,-0.29512c-0.01319,-0.10123 -0.02605,-0.19125 -0.02852,-0.20016c-0.00247,-0.0089 -0.00198,-0.03462 0.00099,-0.05721c0.00313,-0.02259 -0.03314,-0.06562 -0.08046,-0.09563c-0.06743,-0.0427 -0.06826,-0.05474 -0.0033,-0.0554c0.06677,-0.00082 0.06727,-0.02918 0.00247,-0.14591c-0.09777,-0.17674 -0.12481,-1.5297 -0.0305,-1.5297c0.03495,0 0.04435,-0.01896 0.02094,-0.04237c-0.02325,-0.02325 -0.00627,-0.08672 0.03759,-0.14113c0.06381,-0.07881 0.06364,-0.08903 -0.00049,-0.05045c-0.04435,0.02671 -0.08046,0.01764 -0.08046,-0.01978c0,-0.03759 0.03199,-0.06826 0.07123,-0.06826c0.0394,0 0.05325,-0.04682 0.03116,-0.10469c-0.02209,-0.05771 -0.01319,-0.13734 0.01978,-0.17707c0.03297,-0.0399 0.06282,-0.1014 0.06628,-0.13684c0.01484,-0.15366 0.08293,-0.28985 0.14476,-0.28985c0.03677,0 0.05062,-0.0427 0.0305,-0.0948c-0.01995,-0.05226 0.0028,-0.11739 0.05062,-0.14492c0.04781,-0.02753 0.13206,-0.15877 0.1873,-0.2915c0.05507,-0.13289 0.12596,-0.24154 0.15745,-0.24154c0.03166,0 0.09118,-0.07403 0.13239,-0.16471c0.04138,-0.09052 0.09662,-0.15218 0.12316,-0.13701c0.02638,0.01517 0.10585,-0.03116 0.17674,-0.10288c0.0709,-0.07172 0.08821,-0.107 0.03842,-0.07831c-0.06265,0.03594 -0.07551,0.0277 -0.04188,-0.02671c0.02687,-0.04336 0.08211,-0.06595 0.123,-0.05029c0.07452,0.02852 0.24995,-0.11195 0.20082,-0.16092c-0.01434,-0.01434 0.09447,-0.10436 0.24187,-0.19983c0.20082,-0.13025 0.28061,-0.15366 0.3187,-0.09348c0.04666,0.07337 0.0793,0.02127 0.06067,-0.09678c-0.00429,-0.02671 0.01401,-0.04501 0.04056,-0.04072c0.13849,0.02176 0.27699,-0.01467 0.24599,-0.0648c-0.01929,-0.03133 0.00066,-0.05589 0.04452,-0.05424c0.25539,0.00923 0.37344,-0.02358 0.3314,-0.09183c-0.02687,-0.04336 -0.01797,-0.05688 0.02143,-0.03264c0.0371,0.02308 0.18878,-0.00099 0.33684,-0.05325c0.40015,-0.14113 14.04573,-0.14426 14.50903,-0.0033c0.16817,0.05111 0.30584,0.0793 0.30584,0.06249c0,-0.01682 0.07123,0.01599 0.15811,0.07304c0.08705,0.05688 0.18845,0.08491 0.22555,0.06199c0.03693,-0.02275 0.0671,-0.00907 0.0671,0.0305c0,0.03957 0.02638,0.05573 0.05869,0.03578c0.10684,-0.06611 0.28704,0.03726 0.18829,0.10799c-0.06348,0.04551 -0.05573,0.05177 0.03017,0.02407c0.12118,-0.03924 0.40378,0.10469 0.54689,0.27847c0.04567,0.05556 0.1075,0.10107 0.13717,0.10107c0.12877,0 0.80046,0.79205 0.80771,0.95231c0.00115,0.02786 0.04039,0.07436 0.08705,0.10305c0.04666,0.02885 0.0915,0.09299 0.09975,0.14262c0.00808,0.04963 0.05556,0.16257 0.10519,0.2511c0.04963,0.08854 0.09909,0.21335 0.10981,0.27715c0.01055,0.06397 0.06677,0.20791 0.12464,0.31985c0.05787,0.11211 0.11079,0.38036 0.11739,0.59635c0.00659,0.21598 0.03182,0.42471 0.05606,0.46379c0.06397,0.10338 0.01731,13.28055 -0.04781,13.51006c-0.03017,0.10618 -0.05276,0.24385 -0.05045,0.30584c0.00247,0.06199 -0.01649,0.11277 -0.04221,0.11277c-0.02556,0 -0.05029,0.05062 -0.05507,0.11261c-0.01467,0.19521 -0.05457,0.32233 -0.12943,0.41251c-0.0399,0.04798 -0.09299,0.16933 -0.11821,0.2694c-0.02506,0.09991 -0.08524,0.19702 -0.13355,0.21565c-0.04847,0.01847 -0.07403,0.05622 -0.05705,0.08376c0.01698,0.02753 -0.02572,0.12217 -0.0948,0.21005c-0.06925,0.08804 -0.1075,0.17839 -0.08507,0.20082c0.02242,0.02242 -0.00742,0.04089 -0.06644,0.04089c-0.05902,0 -0.10733,0.03281 -0.10733,0.07287c0,0.12613 -0.5637,0.64927 -0.60063,0.55727c-0.02391,-0.05952 -0.03479,-0.05556 -0.03875,0.01385c-0.00577,0.09925 -0.37723,0.38646 -0.4999,0.38646c-0.03776,0 -0.18087,0.04897 -0.31804,0.10865c-0.13717,0.05985 -0.27122,0.11426 -0.29776,0.12085c-0.02654,0.00659 -0.05556,0.01929 -0.0643,0.02819c-0.0089,0.0089 -0.07419,0.02605 -0.14492,0.03809c-0.0709,0.01187 -0.27369,0.05292 -0.45093,0.09101c-0.37608,0.08095 -1.54734,0.03347 -1.6423,-0.06661c-0.01764,-0.01863 -0.20609,-0.08705 -0.41861,-0.15185c-0.21252,-0.0648 -0.44203,-0.16553 -0.51012,-0.22357c-0.06809,-0.0582 -0.10288,-0.06991 -0.07716,-0.02605c0.03149,0.05375 0.01418,0.06727 -0.05292,0.04155c-0.0549,-0.0211 -0.08557,-0.06117 -0.06826,-0.0892c0.0305,-0.04913 -0.10453,-0.12992 -0.276,-0.16537c-0.09761,-0.02011 -0.72215,-0.6623 -0.72215,-0.74259c0,-0.03034 -0.07403,-0.10354 -0.16421,-0.16273c-0.0948,-0.06199 -0.14954,-0.14591 -0.12959,-0.19801c0.01913,-0.04979 0.0061,-0.07271 -0.02902,-0.05111c-0.05556,0.03446 -0.07024,0.00297 -0.06133,-0.13157c0.00132,-0.01896 -0.04386,-0.08062 -0.10024,-0.13701c-0.05655,-0.05655 -0.08689,-0.14393 -0.0676,-0.19422c0.01962,-0.05078 0.00692,-0.07419 -0.02836,-0.05243c-0.03512,0.02176 -0.06809,0.00148 -0.07353,-0.04485c-0.00544,-0.04649 -0.01335,-0.11327 -0.01781,-0.14872c-0.00445,-0.03545 -0.02902,-0.0981 -0.05474,-0.13915c-0.02589,-0.04105 -0.02737,-0.12547 -0.00346,-0.18763c0.02951,-0.07716 0.01946,-0.09826 -0.03199,-0.06644c-0.04781,0.02951 -0.07535,0 -0.07535,-0.08079c0,-0.07007 -0.01946,-0.1779 -0.0432,-0.23973c-0.03199,-0.08359 -0.01962,-0.10024 0.04831,-0.06496c0.06941,0.03611 0.06809,0.02704 -0.00511,-0.03776c-0.08277,-0.07304 -0.09365,-0.36454 -0.07535,-2.03718c0.0211,-1.94336 0.02061,-1.95161 -0.10865,-1.87098c-0.07139,0.04468 -0.1169,0.10189 -0.10107,0.12745c0.01566,0.02539 -0.01517,0.09002 -0.06859,0.14344c-0.05342,0.05342 -0.09728,0.1436 -0.09728,0.20049c0,0.05672 -0.0432,0.11986 -0.09612,0.14014c-0.05292,0.02028 -0.08359,0.05754 -0.06793,0.08277c0.01566,0.02539 -0.04254,0.1225 -0.1291,0.21598c-0.08672,0.09332 -0.15762,0.19867 -0.15762,0.23396c0,0.03512 -0.05078,0.09233 -0.11277,0.12695c-0.06199,0.03479 -0.10997,0.08689 -0.10684,0.11591c0.01335,0.12019 -0.05672,0.27435 -0.10981,0.24154c-0.05177,-0.03199 -0.08409,0.05886 -0.06463,0.18169c0.00412,0.02654 -0.01847,0.04831 -0.05045,0.04831c-0.03199,0 -0.09002,0.07963 -0.12893,0.17707c-0.03891,0.09744 -0.13272,0.27864 -0.20856,0.40262c-0.07568,0.12382 -0.20296,0.34689 -0.28276,0.49544c-0.07963,0.14839 -0.16405,0.25077 -0.18746,0.22736c-0.02341,-0.02358 -0.02358,0.00709 -0.00016,0.06809c0.02523,0.06562 0.01187,0.11063 -0.03264,0.11063c-0.04122,0 -0.05721,0.02902 -0.03528,0.06447c0.02193,0.03545 0.00907,0.0643 -0.02836,0.0643c-0.03759,0 -0.06232,0.02176 -0.05523,0.04831c0.00725,0.02671 -0.05639,0.17872 -0.14113,0.33816c-0.08491,0.15943 -0.16125,0.33041 -0.16982,0.38003c-0.00857,0.04963 -0.04897,0.11079 -0.08969,0.13602c-0.04072,0.02523 -0.07238,0.06414 -0.07024,0.08656c0.01154,0.11854 -0.08095,0.42785 -0.12778,0.42785c-0.02984,0 -0.03578,0.04831 -0.01319,0.10717c0.02918,0.07617 0.01731,0.09249 -0.04122,0.05639c-0.06034,-0.03743 -0.07106,-0.01599 -0.04039,0.08062c0.02292,0.07221 0.01154,0.15003 -0.02539,0.17279c-0.03677,0.02292 -0.06694,0.09332 -0.06694,0.15663c0,0.06331 -0.05622,0.17988 -0.12481,0.25902c-0.06859,0.07914 -0.10882,0.18548 -0.08936,0.2361c0.01946,0.05078 -0.00247,0.13783 -0.04864,0.1934c-0.04616,0.05556 -0.08837,0.16026 -0.09365,0.23247c-0.00528,0.07221 -0.05935,0.1591 -0.12003,0.19307c-0.09249,0.05177 -0.09678,0.07848 -0.02621,0.16553c0.06232,0.077 0.06331,0.09134 0.00346,0.0554c-0.05177,-0.03116 -0.08392,-0.00676 -0.09019,0.06809c-0.01797,0.21252 -0.02556,0.24467 -0.07634,0.32579c-0.0277,0.04435 -0.03248,0.10948 -0.01055,0.14492c0.02193,0.03545 0.00577,0.06447 -0.03594,0.06447c-0.04402,0 -0.0615,0.05391 -0.04204,0.12877c0.01863,0.0709 0.00429,0.12877 -0.03149,0.12877c-0.03594,0 -0.04963,0.04072 -0.03067,0.09035c0.01913,0.04963 0.015,0.10997 -0.00923,0.13421c-0.02407,0.02407 -0.04748,0.0704 -0.05194,0.10288c-0.00429,0.03248 -0.01401,0.06628 -0.02127,0.07518c-0.00742,0.00874 -0.02737,0.10222 -0.04452,0.20758c-0.01698,0.10552 -0.06133,0.22818 -0.09843,0.27303c-0.0371,0.04468 -0.05111,0.12415 -0.03083,0.17658c0.02011,0.05243 0.00676,0.11376 -0.02951,0.13619c-0.03627,0.02242 -0.05144,0.07848 -0.0338,0.12448c0.01764,0.04616 0.01434,0.10173 -0.00758,0.12366c-0.04666,0.04666 -0.06908,0.15267 -0.12003,0.56848c-0.02061,0.16834 -0.06364,0.30601 -0.09546,0.30601c-0.03182,0 -0.05226,0.0216 -0.04534,0.04831c0.00676,0.02654 -0.00923,0.23659 -0.03594,0.46692c-0.04765,0.41317 -0.06842,0.5548 -0.13668,0.93384c-0.01913,0.10618 -0.04897,0.48291 -0.06628,0.83723c-0.01748,0.35415 -0.04831,0.77441 -0.06859,0.93384c-0.04732,0.37031 -0.04353,2.39462 0.00561,3.02691c0.08128,1.04563 0.13437,1.48403 0.25753,2.12538c0.05095,0.26561 0.10931,0.61349 0.12959,0.77276c0.04765,0.37459 0.13355,0.80508 0.16075,0.80508c0.00594,0 0.02358,0.1014 0.03924,0.22538c0.0155,0.12398 0.05507,0.28342 0.08771,0.35431c0.10964,0.23725 0.25671,0.82025 0.22143,0.87729c-0.01913,0.03116 -0.01039,0.05655 0.01962,0.05655c0.03001,0 0.06133,0.08887 0.06958,0.19752c0.00824,0.10865 0.06117,0.26808 0.11772,0.35415c0.05639,0.08623 0.08128,0.15679 0.05507,0.15679c-0.02605,0 -0.01138,0.04336 0.03281,0.09662c0.04402,0.05309 0.05853,0.09662 0.03215,0.09662c-0.02638,0 -0.01599,0.03842 0.02308,0.08557c0.03908,0.04699 0.08013,0.14113 0.0915,0.20922c0.01121,0.06809 0.0582,0.19241 0.10436,0.27649c0.06974,0.12712 0.06925,0.14393 -0.0033,0.10024c-0.07057,-0.04254 -0.07188,-0.0338 -0.00692,0.04649c0.04402,0.05441 0.06084,0.11788 0.03759,0.14113c-0.02325,0.02341 -0.01204,0.04237 0.02523,0.04237c0.06034,0 0.14855,0.17823 0.17543,0.35431c0.00544,0.03545 0.046,0.13025 0.09035,0.21054c0.04419,0.08046 0.06018,0.17922 0.03528,0.21928c-0.0277,0.04485 -0.01632,0.05523 0.02935,0.02704c0.04122,-0.02539 0.0765,-0.00841 0.07914,0.03842c0.0028,0.04633 0.01368,0.1286 0.0244,0.18268c0.02852,0.1441 0.71984,1.57322 0.89592,1.85219c0.0831,0.13157 0.15943,0.26808 0.16965,0.30353c0.01039,0.03545 0.08656,0.17196 0.16949,0.3032c0.08293,0.1314 0.15844,0.27633 0.16768,0.322c0.0094,0.04583 0.03149,0.09777 0.0493,0.11558c0.15168,0.15152 0.27369,0.33519 0.19323,0.29034c-0.05325,-0.02951 -0.02638,0.02358 0.05952,0.11788c0.0859,0.09414 0.13454,0.1713 0.10816,0.1713c-0.02654,0 -0.00231,0.04583 0.05375,0.10189c0.05589,0.05589 0.08244,0.13289 0.05902,0.17081c-0.02473,0.0399 -0.0127,0.05062 0.02836,0.02523c0.06875,-0.04254 0.2478,0.19983 0.22011,0.29776c-0.00758,0.02671 0.01533,0.04831 0.05062,0.04831c0.03545,0 0.06447,0.0549 0.06447,0.12201c0,0.0671 0.04353,0.13849 0.09662,0.15894c0.05309,0.02044 0.09662,0.0709 0.09662,0.11211c0,0.04122 0.0521,0.12184 0.11591,0.17905c0.06381,0.05738 0.21598,0.24846 0.33816,0.42471c0.12217,0.17641 0.28012,0.3741 0.35102,0.43972c0.07073,0.06545 0.08524,0.09678 0.03215,0.06958c-0.08293,-0.04254 -0.08425,-0.03413 -0.00874,0.05869c0.04831,0.05968 0.10915,0.09513 0.13536,0.07881c0.04979,-0.03067 0.22621,0.28457 0.20659,0.36899c-0.0061,0.02671 0.01385,0.04831 0.04452,0.04831c0.10338,0 0.49627,0.38432 0.3952,0.38646c-0.08376,0.00165 -0.08409,0.00989 -0.00313,0.06117c0.05144,0.03248 0.11129,0.04814 0.13305,0.03479c0.02176,-0.01352 0.09002,0.06084 0.15168,0.1652c0.06166,0.10436 0.13932,0.1896 0.17279,0.18977c0.03347,0 0.06084,0.04518 0.06067,0.10024c0,0.05523 0.02572,0.08458 0.05721,0.06513c0.03133,-0.01929 0.09662,0.01352 0.14492,0.07304c0.07551,0.09315 0.07436,0.10024 -0.0089,0.05095c-0.15861,-0.09414 0.78463,0.8303 1.04975,1.02865c0.1469,0.11014 0.23066,0.21912 0.21005,0.2732c-0.01913,0.04946 -0.00594,0.07221 0.02902,0.05062c0.03512,-0.02176 0.06364,-0.00692 0.06364,0.03264c0,0.03957 0.0272,0.05523 0.06034,0.03479c0.03314,-0.02044 0.14014,0.07205 0.23791,0.20543c0.25819,0.35266 0.29446,0.38828 0.24748,0.24269c-0.03149,-0.09711 0.00198,-0.08128 0.13652,0.06447c0.09793,0.10634 0.20197,0.18598 0.23099,0.17707c0.02918,-0.00874 0.05292,0.02391 0.05292,0.07271c0,0.0488 0.0859,0.12448 0.19109,0.16801c0.10502,0.04353 0.20856,0.13437 0.23,0.20197c0.02143,0.06743 0.06595,0.10618 0.09876,0.0859c0.03281,-0.02044 0.05985,-0.00627 0.05985,0.03116c0,0.03759 0.04518,0.06826 0.10024,0.06826c0.05523,0 0.08392,0.02687 0.06348,0.05968c-0.02028,0.03297 0.0216,0.07831 0.09282,0.10107c0.07139,0.02259 0.12976,0.06809 0.12976,0.10123c0,0.03297 0.02358,0.05276 0.05226,0.04386c0.05655,-0.01731 0.38894,0.21796 0.63674,0.45093c0.08474,0.07963 0.18186,0.14492 0.21565,0.14492c0.0338,0 0.06183,0.03611 0.06249,0.08046c0.00066,0.05358 0.02176,0.04831 0.06331,-0.01616c0.05342,-0.08244 0.06265,-0.08013 0.06348,0.01616c0.00049,0.06199 0.03166,0.11277 0.06925,0.11277c0.03743,0 0.04979,-0.03627 0.02737,-0.08062c-0.02242,-0.04419 0.0061,-0.02242 0.06331,0.04831c0.05738,0.0709 0.12464,0.1314 0.14971,0.13437c0.13124,0.01599 0.27105,0.11541 0.27089,0.19257c0,0.05144 0.0399,0.07238 0.09662,0.05062c0.05325,-0.02044 0.09662,-0.00495 0.09662,0.03413c0,0.03924 0.05804,0.07139 0.12893,0.07139c0.07073,0 0.12877,0.02457 0.12877,0.05441c0,0.04897 0.58365,0.37838 1.14307,0.64531c0.11525,0.05507 0.20939,0.12283 0.20939,0.15086c0,0.02803 0.05441,0.05111 0.12085,0.05111c0.06661,0 0.15679,0.04303 0.20065,0.09579c0.04369,0.05276 0.10519,0.08013 0.13668,0.06067c0.03133,-0.01946 0.05705,0.00016 0.05705,0.04369c0,0.04336 0.01797,0.061 0.0399,0.03908c0.04485,-0.04501 0.94522,0.40641 0.98232,0.49248c0.01303,0.03067 0.0488,0.01616 0.07947,-0.03215c0.04402,-0.06958 0.05589,-0.0704 0.05655,-0.00346c0.00066,0.04633 0.03017,0.06628 0.06595,0.04419c0.03561,-0.02209 0.10898,0.00396 0.16289,0.05787c0.05391,0.05391 0.14525,0.0798 0.20329,0.05754c0.0765,-0.02935 0.09068,-0.01682 0.05194,0.04583c-0.03842,0.06216 -0.0249,0.07535 0.04847,0.04732c0.05869,-0.02259 0.1169,0.00016 0.13734,0.05342c0.01962,0.05095 0.0671,0.09249 0.10585,0.09249c0.03858,0 0.05391,-0.02621 0.03413,-0.05837c-0.01995,-0.03215 0.02143,-0.04336 0.092,-0.0249c0.07057,0.01847 0.11228,0.05919 0.09282,0.09068c-0.01929,0.03133 0.01006,0.05705 0.06529,0.05705c0.05507,0 0.10074,0.03627 0.10123,0.08046c0.00066,0.05375 0.02193,0.04831 0.06348,-0.01599c0.0488,-0.07551 0.06265,-0.07733 0.06348,-0.00874c0.00066,0.05622 0.04765,0.07584 0.12976,0.05441c0.0709,-0.01847 0.12877,-0.00577 0.12877,0.02852c0,0.03413 0.03083,0.04303 0.06842,0.01978c0.03776,-0.02325 0.12283,0.00692 0.18927,0.06694c0.06628,0.06001 0.15152,0.09019 0.18911,0.06694c0.03759,-0.02325 0.06842,-0.01253 0.06842,0.02391c0,0.03627 0.04089,0.05045 0.09085,0.03133c0.04996,-0.01913 0.17312,0.00676 0.27369,0.05754c0.10057,0.05078 0.21912,0.07947 0.26347,0.06364c0.04419,-0.01566 0.08046,0.00577 0.08046,0.04798c0,0.04221 0.04072,0.061 0.09035,0.04204c0.04963,-0.01913 0.1075,-0.01748 0.1286,0.00363c0.02094,0.02094 0.13107,0.04831 0.24451,0.06084c0.11343,0.01237 0.22225,0.04666 0.2417,0.07634c0.01962,0.02951 0.07897,0.05639 0.13206,0.05968c0.18416,0.01105 0.5365,0.0892 0.70253,0.15581c0.09183,0.03693 0.25391,0.07353 0.36025,0.08161c0.322,0.0244 1.01925,0.16933 1.14917,0.2389c0.09118,0.0488 0.11014,0.04583 0.07436,-0.01187c-0.03528,-0.05721 -0.01649,-0.061 0.07287,-0.01418c0.06611,0.03479 0.32332,0.08128 0.57129,0.10354c0.24797,0.02209 0.58118,0.05226 0.74061,0.0671c0.91554,0.08442 1.5236,0.10684 2.73706,0.10074c1.4771,-0.00725 1.84873,-0.02473 1.95738,-0.09183c0.03924,-0.0244 0.09315,-0.03133 0.1197,-0.01566c0.02654,0.01566 0.23676,0.00066 0.46692,-0.0333c0.23033,-0.03396 0.50567,-0.07238 0.61185,-0.08557c0.36965,-0.04551 0.52792,-0.07568 0.5858,-0.11129c0.05721,-0.03528 0.69164,-0.12514 0.97605,-0.13833c0.07963,-0.00363 0.14492,-0.02836 0.14492,-0.0549c0,-0.02671 0.0216,-0.04501 0.04831,-0.04072c0.02654,0.00412 0.06265,0.00148 0.08046,-0.0061c0.01764,-0.00742 0.13355,-0.0211 0.25753,-0.03034c0.12398,-0.00907 0.48984,-0.10783 0.81283,-0.21945c0.32299,-0.11145 0.66362,-0.20889 0.75677,-0.21664c0.09315,-0.00775 0.16933,-0.03842 0.16933,-0.06826c0,-0.02968 0.02704,-0.03743 0.06001,-0.01698c0.03297,0.02028 0.07848,0.00709 0.10107,-0.02951c0.02259,-0.0366 0.06611,-0.05111 0.09662,-0.03215c0.0305,0.0188 0.07436,0.00363 0.09761,-0.0338c0.02308,-0.03743 0.10123,-0.0493 0.17345,-0.02638c0.08425,0.02671 0.1164,0.01731 0.08953,-0.02621c-0.02621,-0.04221 0.01121,-0.05771 0.09876,-0.04089c0.08343,0.01616 0.1751,-0.01797 0.22505,-0.08376c0.04633,-0.06117 0.08573,-0.08211 0.08738,-0.04666c0.00165,0.03545 0.02424,0.03116 0.05029,-0.0094c0.02605,-0.04072 0.11986,-0.08409 0.2084,-0.09662c0.08854,-0.01253 0.20131,-0.06117 0.25077,-0.10799c0.05194,-0.0493 0.15416,-0.06892 0.24286,-0.04666c0.10206,0.02556 0.1652,0.00725 0.18911,-0.05523c0.04402,-0.11475 0.41202,-0.25687 0.41202,-0.1591c0,0.03611 0.0432,0.02242 0.09612,-0.03034c0.05276,-0.05292 0.20411,-0.13173 0.33634,-0.17543c0.13206,-0.04353 0.28111,-0.12003 0.3309,-0.16982c0.04979,-0.04996 0.13668,-0.07304 0.19307,-0.05128c0.05622,0.0216 0.08194,0.0188 0.05705,-0.0061c-0.05754,-0.05754 0.2483,-0.21912 0.41466,-0.21912c0.06892,0 0.10915,-0.02589 0.08969,-0.05754c-0.03215,-0.05194 0.16801,-0.13404 0.31062,-0.12728c0.03133,0.00148 0.07485,-0.02292 0.09645,-0.05424c0.05902,-0.08507 0.45802,-0.3553 0.45818,-0.31013c0,0.02143 0.06331,-0.02011 0.1408,-0.09233c0.07766,-0.07221 0.17691,-0.13124 0.22093,-0.13124c0.04386,0 0.1253,-0.04551 0.18103,-0.10123c0.05573,-0.05573 0.10123,-0.08128 0.10123,-0.05672c0,0.0244 0.09777,-0.03017 0.21747,-0.12151c0.11953,-0.09118 0.2295,-0.15383 0.24418,-0.13915c0.01467,0.01484 0.15597,-0.08788 0.31392,-0.22802c0.15778,-0.14014 0.33783,-0.25489 0.39982,-0.25489c0.06199,-0.00016 0.11261,-0.02918 0.11261,-0.06463c0,-0.03528 0.04353,-0.0643 0.09662,-0.0643c0.05309,0 0.09662,-0.02902 0.09662,-0.06447c0,-0.03545 0.04353,-0.0643 0.09662,-0.0643c0.05309,0 0.09662,-0.02902 0.09662,-0.06447c0,-0.03545 0.0366,-0.06447 0.08112,-0.06447c0.04468,0 0.16718,-0.07963 0.27221,-0.17707c0.10502,-0.09744 0.20626,-0.17707 0.22472,-0.17707c0.01863,0 0.02654,-0.02176 0.01764,-0.04831c-0.00874,-0.02654 0.01154,-0.04831 0.04534,-0.04831c0.03396,0 0.13404,-0.07254 0.22258,-0.16108c0.08854,-0.08854 0.18927,-0.16092 0.22373,-0.16092c0.03446,0 0.12267,-0.07634 0.19603,-0.16965c0.07337,-0.09348 0.13355,-0.13009 0.13355,-0.08178c0,0.04847 0.07353,-0.02011 0.16322,-0.15234c0.08986,-0.13206 0.19933,-0.24039 0.24335,-0.24022c0.04402,0 0.12547,-0.05078 0.18087,-0.11277c0.05556,-0.06199 0.16619,-0.15614 0.24599,-0.20939c0.0798,-0.05309 0.17064,-0.16174 0.20164,-0.24137c0.03116,-0.0798 0.09761,-0.14492 0.14789,-0.14492c0.05012,0 0.10865,-0.04534 0.12992,-0.10074c0.02127,-0.0554 0.06776,-0.0826 0.10354,-0.06067c0.03561,0.02209 0.06661,0.00214 0.06892,-0.04419c0.00231,-0.04633 0.1347,-0.1929 0.2943,-0.32579c0.15943,-0.13289 0.26808,-0.24154 0.24104,-0.24154c-0.02687,0 0.00742,-0.04105 0.07617,-0.09134c0.06875,-0.05029 0.12497,-0.11558 0.12497,-0.14492c0,-0.07584 0.31227,-0.37888 0.37031,-0.35942c0.02671,0.0089 0.04831,-0.02424 0.04831,-0.0737c0,-0.0493 0.04534,-0.107 0.10074,-0.12827c0.05639,-0.0216 0.08029,-0.07156 0.05441,-0.11343c-0.02687,-0.04369 -0.01814,-0.05754 0.02094,-0.03347c0.03677,0.02292 0.10288,-0.00165 0.14657,-0.05441c0.04386,-0.05276 0.05424,-0.09678 0.02341,-0.09793c-0.03083,-0.00115 -0.01088,-0.03726 0.04435,-0.08046c0.0554,-0.0432 0.12085,-0.13223 0.14558,-0.19785c0.0277,-0.07403 0.0826,-0.10486 0.14426,-0.08128c0.05457,0.02094 0.08343,0.01253 0.06414,-0.0188c-0.01929,-0.03133 0.00808,-0.07353 0.061,-0.09381c0.05292,-0.02028 0.09629,-0.08293 0.09629,-0.13899c0,-0.05622 0.08837,-0.19488 0.1962,-0.30798c0.10783,-0.11327 0.28671,-0.34343 0.39718,-0.51177c0.11063,-0.16817 0.22522,-0.30584 0.25473,-0.30584c0.02951,0 0.05358,-0.04518 0.05358,-0.10041c0,-0.05523 0.02869,-0.08277 0.06364,-0.06117c0.03528,0.02176 0.04798,-0.00148 0.02852,-0.05226c-0.01929,-0.05045 0.01187,-0.10964 0.06925,-0.13173c0.05738,-0.02193 0.08755,-0.0671 0.0671,-0.10024c-0.02044,-0.03314 0.02506,-0.07996 0.10107,-0.10404c0.09662,-0.03067 0.11442,-0.05869 0.05869,-0.09299c-0.05886,-0.0366 -0.04864,-0.07205 0.0399,-0.138c0.06562,-0.0488 0.1192,-0.13206 0.1192,-0.18532c0,-0.05309 0.03528,-0.08969 0.07815,-0.08128c0.04831,0.00956 0.06265,-0.02539 0.03743,-0.09101c-0.02358,-0.06133 -0.01434,-0.09002 0.0216,-0.06776c0.03446,0.0211 0.09942,-0.02061 0.14459,-0.09282c0.06727,-0.10783 0.06677,-0.12349 -0.0033,-0.08771c-0.04682,0.02407 -0.02902,-0.00181 0.03973,-0.05754c0.06875,-0.05589 0.09991,-0.1014 0.06941,-0.1014c-0.03067,0 0.01286,-0.0732 0.09678,-0.1624c0.08392,-0.08936 0.15976,-0.2117 0.16867,-0.27204c0.00874,-0.06018 0.05688,-0.13948 0.10684,-0.17592c0.04996,-0.0366 0.1131,-0.13882 0.14031,-0.2272c0.0272,-0.08837 0.08079,-0.19999 0.1192,-0.2478c0.03842,-0.04781 0.07568,-0.12646 0.08277,-0.17477c0.00709,-0.04831 0.07254,-0.17163 0.14542,-0.27402c0.07304,-0.10255 0.22472,-0.38613 0.33717,-0.63031c0.11244,-0.24418 0.2295,-0.45373 0.26017,-0.4656c0.03067,-0.01187 0.0394,-0.04798 0.01946,-0.08046c-0.02011,-0.03232 -0.00099,-0.05886 0.04254,-0.05886c0.04336,0 0.06067,-0.01814 0.03858,-0.04039c-0.02226,-0.02226 0.00247,-0.12333 0.0549,-0.22472c0.05243,-0.1014 0.0948,-0.19917 0.09398,-0.2173c-0.00742,-0.18779 0.00824,-0.22786 0.07304,-0.18779c0.04814,0.02984 0.05688,0.01764 0.02473,-0.03446c-0.02902,-0.04699 0.00692,-0.15712 0.08656,-0.26495c0.07502,-0.1014 0.13652,-0.24187 0.13652,-0.31211c0,-0.07024 0.03034,-0.14641 0.06743,-0.16933c0.0371,-0.02292 0.06018,-0.08986 0.05128,-0.14872c-0.00907,-0.05886 0.01748,-0.16834 0.05902,-0.24335c0.04138,-0.07518 0.05705,-0.15482 0.03462,-0.17724c-0.02242,-0.02226 -0.00775,-0.04056 0.03248,-0.04056c0.04023,0 0.05754,-0.04056 0.03858,-0.09019c-0.01913,-0.04946 -0.0033,-0.10948 0.03512,-0.13322c0.03842,-0.02374 0.05325,-0.07007 0.03281,-0.10305c-0.02028,-0.03297 -0.00627,-0.06001 0.03116,-0.06001c0.03759,0 0.0648,-0.02176 0.06067,-0.04831c-0.00429,-0.02654 -0.00198,-0.06282 0.00495,-0.08046c0.0244,-0.06282 0.06529,-0.22868 0.11887,-0.48308c0.03001,-0.14163 0.08986,-0.32348 0.13305,-0.40378c0.04336,-0.08046 0.06117,-0.17477 0.03973,-0.20939c-0.02143,-0.03462 -0.01105,-0.06298 0.02325,-0.06298c0.03413,-0.00016 0.04699,-0.05804 0.02836,-0.12893c-0.01847,-0.07073 -0.0061,-0.12877 0.02753,-0.12877c0.03363,0 0.0643,-0.03627 0.06793,-0.08046c0.02094,-0.24896 0.046,-0.37031 0.07683,-0.37031c0.01913,0 0.03891,-0.0798 0.04419,-0.17724c0.00511,-0.09728 0.02621,-0.24945 0.04699,-0.33799c0.09068,-0.38679 0.12712,-0.55381 0.1408,-0.64416c0.00791,-0.05309 0.04732,-0.25588 0.08755,-0.45076c0.04039,-0.19488 0.08656,-0.51358 0.10272,-0.70846c0.01616,-0.19488 0.04501,-0.42669 0.06397,-0.51523c0.13619,-0.63344 0.21434,-3.35732 0.12926,-4.5083c-0.08326,-1.12658 -0.15663,-1.79201 -0.2272,-2.06092c-0.03264,-0.12398 -0.05787,-0.28325 -0.05589,-0.35415c0.00181,-0.0709 -0.03001,-0.2882 -0.07073,-0.48308c-0.04072,-0.19472 -0.08145,-0.41367 -0.09052,-0.48621c-0.00907,-0.07271 -0.03281,-0.1596 -0.05259,-0.19323c-0.01978,-0.03363 -0.08656,-0.29298 -0.14822,-0.5764c-0.06183,-0.28342 -0.1286,-0.55876 -0.14839,-0.61185c-0.03429,-0.09233 -0.06925,-0.26215 -0.08936,-0.43477c-0.00511,-0.04419 -0.03182,-0.08046 -0.05935,-0.08046c-0.02753,0 -0.03891,-0.05738 -0.02539,-0.12745c0.01352,-0.07007 -0.00577,-0.14624 -0.0427,-0.169c-0.04386,-0.0272 -0.03693,-0.061 0.01995,-0.09695c0.06743,-0.04287 0.06084,-0.05573 -0.02902,-0.05639c-0.06414,-0.00066 -0.09991,-0.02803 -0.07947,-0.061c0.02028,-0.03297 0.00709,-0.07848 -0.02951,-0.10107c-0.0366,-0.02259 -0.05111,-0.06611 -0.03215,-0.09662c0.0188,-0.0305 0.00363,-0.07436 -0.0338,-0.09761c-0.03743,-0.02308 -0.0493,-0.10123 -0.02638,-0.17345c0.02424,-0.07667 0.01616,-0.11574 -0.01946,-0.09365c-0.0338,0.02077 -0.09216,-0.06249 -0.12976,-0.18515c-0.0427,-0.13899 -0.04501,-0.22291 -0.00627,-0.22291c0.03429,0 0.04402,-0.02951 0.02176,-0.06545c-0.02226,-0.03611 -0.06496,-0.05045 -0.0948,-0.03199c-0.02984,0.01847 -0.046,-0.04138 -0.03611,-0.13289c0.01055,-0.09563 -0.01913,-0.18087 -0.06958,-0.20032c-0.04831,-0.01847 -0.07188,-0.05968 -0.05226,-0.09134c0.01946,-0.03182 0.00297,-0.05771 -0.03693,-0.05771c-0.04237,0 -0.05622,-0.05161 -0.0333,-0.12398c0.0244,-0.07683 0.00231,-0.14476 -0.0582,-0.17872c-0.05358,-0.03001 -0.11079,-0.12629 -0.12679,-0.21401c-0.01616,-0.08771 -0.03479,-0.17394 -0.04138,-0.19175c-0.00676,-0.01764 -0.00659,-0.08606 0.00033,-0.15185c0.00742,-0.06958 -0.01566,-0.10222 -0.05507,-0.07799c-0.03858,0.02391 -0.08557,-0.03528 -0.10948,-0.13783c-0.04303,-0.18581 -0.28787,-0.73484 -0.35316,-0.79156c-0.03297,-0.02869 -0.13272,-0.23857 -0.153,-0.322c-0.00429,-0.01781 -0.04913,-0.10469 -0.09958,-0.19323c-0.05045,-0.08854 -0.14146,-0.24797 -0.20213,-0.35415c-0.06067,-0.10634 -0.1591,-0.30188 -0.21879,-0.43477c-0.05985,-0.13289 -0.13619,-0.24154 -0.16982,-0.24154c-0.03363,0 -0.04336,-0.02902 -0.02143,-0.06447c0.02193,-0.03528 0.01385,-0.0643 -0.01797,-0.0643c-0.05441,0 -0.22489,-0.29397 -0.23511,-0.40493c-0.00247,-0.02786 -0.04798,-0.07815 -0.10107,-0.11178c-0.05325,-0.03347 -0.06991,-0.0615 -0.0371,-0.06199c0.03264,-0.00049 -0.00659,-0.07123 -0.08722,-0.15729c-0.08079,-0.0859 -0.12712,-0.18796 -0.10305,-0.22687c0.02424,-0.03924 0.00692,-0.06298 -0.03875,-0.05309c-0.04518,0.00973 -0.08359,-0.02094 -0.08524,-0.06809c-0.00165,-0.04715 -0.05655,-0.12481 -0.12217,-0.17279c-0.06545,-0.04798 -0.10123,-0.11607 -0.0793,-0.15135c0.02176,-0.03528 0.00577,-0.08524 -0.03578,-0.11079c-0.04715,-0.02918 -0.0582,-0.0188 -0.02951,0.0277c0.02539,0.04089 0.02902,0.07436 0.00841,0.07436c-0.0305,0 -0.14591,-0.24748 -0.18021,-0.38646c-0.00445,-0.01764 -0.06034,-0.08837 -0.12431,-0.15696c-0.06397,-0.06875 -0.11624,-0.14723 -0.11624,-0.1746c0,-0.02737 -0.06348,-0.10882 -0.14097,-0.1812c-0.07749,-0.07221 -0.12333,-0.13124 -0.10173,-0.13124c0.0216,0 -0.07436,-0.11475 -0.21318,-0.25506c-0.13899,-0.14031 -0.25259,-0.27468 -0.25259,-0.29859c0,-0.02391 -0.07403,-0.11195 -0.16438,-0.1957c-0.09035,-0.08376 -0.14393,-0.15234 -0.11887,-0.15234c0.0249,0 -0.0244,-0.06034 -0.10948,-0.13421c-0.08507,-0.07386 -0.15482,-0.16306 -0.15482,-0.19851c0,-0.03528 -0.13041,-0.18136 -0.28968,-0.32464c-0.15943,-0.14328 -0.2333,-0.2206 -0.16405,-0.17196c0.12481,0.08804 0.12481,0.08722 0.00033,-0.08029c-0.06908,-0.09299 -0.15581,-0.15745 -0.1929,-0.14328c-0.0371,0.01434 -0.1352,-0.06562 -0.21796,-0.17757c-0.26742,-0.36173 -0.87037,-0.96781 -1.02337,-1.02865c-0.08178,-0.03248 -0.13404,-0.0831 -0.11591,-0.11211c0.01797,-0.02918 -0.02374,-0.1014 -0.09282,-0.16059c-0.06908,-0.05902 -0.12547,-0.08639 -0.12547,-0.06051c0,0.02589 -0.10552,-0.06859 -0.23461,-0.20988c-0.12893,-0.1413 -0.19834,-0.199 -0.15399,-0.12811c0.04435,0.0709 -0.05309,-0.01533 -0.21631,-0.19142c-0.16322,-0.17625 -0.2976,-0.29216 -0.29875,-0.2577c-0.00099,0.03446 -0.03149,0.01187 -0.0676,-0.05012c-0.03611,-0.06199 -0.10832,-0.11261 -0.16042,-0.11261c-0.0521,0 -0.12778,-0.07254 -0.16817,-0.16108c-0.04023,-0.08854 -0.10585,-0.16092 -0.14558,-0.16092c-0.07353,0 -0.27369,-0.14393 -0.6585,-0.47368c-0.11805,-0.10107 -0.21467,-0.16125 -0.21467,-0.13371c0,0.0277 -0.07238,-0.01797 -0.16092,-0.10107c-0.08854,-0.08326 -0.16191,-0.12448 -0.16306,-0.09167c-0.00115,0.03264 -0.04468,0.00313 -0.09662,-0.06562c-0.0521,-0.06875 -0.09464,-0.10387 -0.09464,-0.07799c0,0.04402 -0.07024,-0.00478 -0.28737,-0.1995c-0.04946,-0.04419 -0.12085,-0.08046 -0.15877,-0.08046c-0.03792,0 -0.06908,-0.02193 -0.06908,-0.04864c0,-0.02687 -0.09414,-0.09019 -0.20922,-0.14064c-0.11508,-0.05062 -0.34673,-0.18812 -0.51457,-0.30551c-0.16784,-0.11755 -0.33453,-0.21368 -0.37031,-0.21368c-0.03578,0 -0.06513,-0.02902 -0.06513,-0.06447c0,-0.03528 -0.02539,-0.05705 -0.05639,-0.04831c-0.031,0.0089 -0.19323,-0.06941 -0.36041,-0.17411c-0.16718,-0.10469 -0.34904,-0.19702 -0.4041,-0.2051c-0.0549,-0.00808 -0.12415,-0.05276 -0.15383,-0.09942c-0.02951,-0.04666 -0.05424,-0.0615 -0.05474,-0.03297c-0.00115,0.05787 -0.38745,-0.15465 -0.38745,-0.21302c0,-0.02028 -0.06117,-0.04138 -0.13602,-0.04715c-0.07469,-0.00561 -0.18334,-0.04963 -0.24137,-0.09777c-0.14575,-0.12102 -0.44071,-0.24137 -0.59157,-0.24137c-0.06925,0 -0.1258,-0.02803 -0.1258,-0.06232c0,-0.03429 -0.03973,-0.04715 -0.08837,-0.02852c-0.04847,0.01863 -0.13553,-0.01335 -0.19323,-0.07106c-0.05771,-0.05771 -0.10486,-0.08656 -0.10486,-0.0643c0,0.02242 -0.03627,0.01797 -0.08046,-0.00973c-0.04435,-0.0277 -0.10948,-0.05424 -0.14492,-0.05902c-0.16619,-0.02209 -0.35431,-0.11277 -0.35431,-0.17081c0,-0.03545 -0.05655,-0.04963 -0.12563,-0.03166c-0.06925,0.01814 -0.13487,0.00544 -0.14608,-0.02819c-0.01121,-0.03347 -0.06331,-0.06908 -0.11574,-0.07881c-0.29925,-0.05606 -0.64301,-0.18169 -0.64301,-0.23527c0,-0.03413 -0.03067,-0.06199 -0.06809,-0.06199c-0.03759,0 -0.05062,0.02869 -0.02885,0.06381c0.04287,0.06925 -0.14525,0.01698 -0.26314,-0.0732c-0.03875,-0.02968 -0.08936,-0.03479 -0.11277,-0.01138c-0.02325,0.02325 -0.04237,0.00676 -0.04237,-0.0366c0,-0.04353 -0.02885,-0.061 -0.0643,-0.03924c-0.03545,0.02193 -0.06447,0.01533 -0.06447,-0.01451c0,-0.03001 -0.05062,-0.05622 -0.11261,-0.05853c-0.24022,-0.00874 -0.6684,-0.09777 -0.86888,-0.18087c-0.11541,-0.04781 -0.31145,-0.10354 -0.43543,-0.12398c-0.12398,-0.02028 -0.3558,-0.0676 -0.51523,-0.10519c-0.15927,-0.03743 -0.36223,-0.0798 -0.45076,-0.09414c-0.08854,-0.01434 -0.34937,-0.06034 -0.57969,-0.10222c-0.23016,-0.04188 -0.5055,-0.08491 -0.61185,-0.09563c-0.10618,-0.01072 -0.33799,-0.0366 -0.51523,-0.05754c-0.73599,-0.08689 -0.8613,-0.09892 -1.38461,-0.13239c-0.30106,-0.01929 -0.89526,-0.04798 -1.32031,-0.06397c-0.42504,-0.01599 -0.8308,-0.04188 -0.90169,-0.05754c-0.4722,-0.10486 -0.78381,-0.19653 -0.85322,-0.25094c-0.04435,-0.03462 -0.08062,-0.04287 -0.08062,-0.01847c0,0.0244 -0.08689,-0.01748 -0.19307,-0.09315c-0.10634,-0.07568 -0.19323,-0.1169 -0.19323,-0.0915c0,0.02523 -0.06562,-0.02341 -0.14575,-0.10832c-0.08029,-0.08491 -0.19933,-0.16355 -0.26479,-0.17493c-0.18186,-0.03133 -0.64334,-0.50138 -0.58497,-0.59569c0.03017,-0.04897 0.02275,-0.06348 -0.01913,-0.03759c-0.07667,0.04732 -0.37097,-0.2732 -0.43444,-0.47286c-0.02259,-0.07106 -0.06974,-0.1291 -0.10486,-0.1291c-0.03512,0 -0.04913,-0.02391 -0.03116,-0.05292c0.01797,-0.02902 -0.02209,-0.14295 -0.08903,-0.25308c-0.18878,-0.31029 -0.30172,-0.73187 -0.34821,-1.29986c-0.0183,-0.22373 -0.00758,-0.31656 0.02984,-0.25753c0.03215,0.05078 0.05886,0.06084 0.05935,0.02242c0.00049,-0.03825 -0.02077,-0.09134 -0.04732,-0.11788c-0.05902,-0.05902 -0.08062,-0.68901 -0.02654,-0.77837c0.02143,-0.03545 0.04748,-0.12234 0.05804,-0.19323c0.03759,-0.25358 0.22143,-0.74061 0.27963,-0.74061c0.03248,0 0.05325,-0.02176 0.046,-0.04831c-0.0244,-0.08887 0.26264,-0.66015 0.33156,-0.66015c0.03743,0 0.06809,-0.04138 0.06809,-0.09183c0,-0.11294 0.44301,-0.48737 0.57821,-0.48868c0.07601,-0.00082 0.0793,-0.01286 0.01451,-0.05408c-0.06578,-0.04171 -0.05968,-0.07238 0.02836,-0.14393c0.09744,-0.07914 0.10568,-0.07831 0.06265,0.00577c-0.02852,0.05589 -0.01039,0.04897 0.04303,-0.01616c0.05095,-0.06199 0.12712,-0.11261 0.16965,-0.11261c0.04254,0 0.05622,-0.03396 0.03067,-0.07551c-0.03166,-0.05111 -0.01105,-0.06166 0.06397,-0.03281c0.061,0.02341 0.09414,0.01583 0.07386,-0.01682c-0.02011,-0.03264 -0.00709,-0.07749 0.02885,-0.09975c0.03594,-0.02226 0.06545,-0.0033 0.06545,0.04204c0,0.04551 0.04649,0.01632 0.10321,-0.0648c0.05705,-0.08145 0.1436,-0.13206 0.19323,-0.11294c0.04946,0.01896 0.09002,0.00643 0.09002,-0.02803c0,-0.03429 0.05787,-0.06232 0.12877,-0.06232c0.0709,0 0.12877,-0.02819 0.12877,-0.06249c0,-0.09629 0.40938,-0.18746 0.46593,-0.10387c0.03248,0.04798 0.04765,0.04518 0.04831,-0.00874c0.00066,-0.0432 0.04155,-0.06282 0.09118,-0.04386c0.04946,0.01896 0.10469,0.01088 0.12267,-0.01814" fill="#000000" fill-rule="evenodd" stroke-width="1"/><path d="" fill="#2c3028" fill-rule="evenodd" stroke-width="1"/><path d="" fill="#2c3028" fill-rule="evenodd" stroke-width="1"/><path d="" fill="#2c3028" fill-rule="evenodd" stroke-width="1"/></g></g></svg>